<?xml version="1.0" encoding="UTF-8"?>
<svg width="188.87mm" height="294.49mm" version="1.1" viewBox="0 0 669.22429 1043.4834" xmlns="http://www.w3.org/2000/svg">
 <g transform="translate(-1731.3 404.93)">
  <g transform="matrix(1.25 0 0 1.25 -1963 -1743.7)" stroke-width="1.6">
   <path d="m3176 1081c50.52-15.88 109.76-12.06 153.66 19.35 40.88 30.09 57.59 84.25 103.31 108.87-5.72 9.47-25.54 0.83-31.56 9.91 6.9 24.99 1.88 50.95-3.05 75.67 6.05 2.96 17.25 1.18 19.12 10.93 7.18 21.02-9.86 37.32-22.74 51-9.45 9.65-8.58 27.25-22.04 33.07-15.35 2.13-14.31 20.58-22.77 30.15-7.35 15.19-19.37 28.03-27.69 42.03 22.73-1.42 42.14 14.91 47.01 36.77 22.74 42.35 47.53 83.84 71.54 125.46 18.81 11.08 32.9 30.09 36.3 51.83-0.69 16.92-5.47 39.15-23.75 45.07-8.6-0.18-15.3 6.37-17.98 14.2-4.45 10.08-16.59 11.88-22.62 20.41-8.6 8.13-27.09 3.7-26.43-9.55 2.18-11.12 7.63-30.33-2.16-36.93-3.09 15.16-15.82 30.33-32.8 26.2-0.28 13.43 7.38 25.22 13.77 36.45 9.04 15.64 12.32 34.06 11.87 51.96 10.15 19.53 26.33 1.76 40.95 5.62 7.88 4.99-3.42 15.22 1.63 20.95 15.18-0.64 29.78 7.01 44.13 11.99-0.96 6.19-11.92-5.31-15.49-2.37-0.48 2.79 2.54 4.28 4.7 5.2 13 3.72 24.84 10.56 37.1 15.94v3.68c-0.94 6.59-1.07 13.26-1.17 19.95-75.24 0.34-150.5 0.28-225.73 0.02-3.78-16.7 7.41-35.9-3.99-49.53 12.03-0.2 12.35-21.22-0.95-19.29-5.51-12.88-10.33-26.11-16.23-38.85-2.12-7.18-14.48-9.02-9.93-18.14 4.3-9.47-10.3-13.98-16.24-8.47-2.96 4.66-0.51 10.54-1.07 15.65-15.91 11.62-17.31 34.71-27.24 50.4-6.65-0.4-13.57 1.8-10.49 10.16-4.28 9.66 11.38 3.02 8.09 11.59-9.52 13.41 1.01 31.1-3.42 46.44-74.72 0.47-149.45 0.12-224.17 0.18-2.32-7.98-0.59-16.79-0.84-25.04 11.76-4.44 22.87-10.38 34.78-14.46 2.45-1.33 7.6-2.38 6.16-6.11-5.39-1.24-12.67 7.78-16.38 2.89 15.31-3.49 29.38-14.37 45.49-11.5-0.35-8.83-6.92-27.03 9.79-21.64 11.51 5.73 28.28 5.65 33.03-8.54-5-37.26 30.78-63.42 27.19-100.14-2.2-4.14-12.31 1.76-13.55-3.38 4.22-13.83 16.82-23.8 19.66-38.28 5.07-30.05 10.88-60.03 13.96-90.35-3.27-1.53-4.38 2.57-5.8 4.65-10.25 19.03-23.33 36.77-32.61 56.15 4.36 16.97-5.51 32.93-19.37 41.83 17.29 11.42 4.26 49.06-17.41 41.56-7.27-0.9-16.59 3.19-21.89-3.47-9.96 7.72-22.12 0.58-27.07-9.6-22.6 2.09-24.07-26.32-21-41.96-17.1-2.69-2.44-21.29-2.73-31.76-1.89-14.17 14.42-16.71 23.75-22.18 9.44-15.57 20.66-30.16 28.19-46.84 20.92-30.06 44.27-59.59 58.24-93.73 7.82-17.1 28.32-20.76 44.31-22.62-13.33-15.56-24.16-33.2-33.88-51.01-5.67 0.04-1.62-7.46-6.52-3.89-3.88-14.26-22.62-14.78-26.06-29.47-5.27-15.64-17.64-26.81-27.68-39.28-7.71-10.69-10.64-28.11 0.03-37.74 3.14-2.9 11.47-1.03 10.6-6.87-6.93-26.06-10.96-53.28-10.01-80.18 16.21-25.02 19.9-56.22 38.36-79.81 14.68-18.27 38.78-24.78 61.1-19.8 6.94-19.55 28.68-25.95 46.69-31.4m-21.88 10.94c-9.14 4.47-16.93 12.13-20.16 21.97-4.29 8.91-13.05-4.04-20.08 0.18-18.08-0.55-37.34 9.29-45.72 25.29-14.92 22.1-20.23 51.71-34.09 75.52-0.01 59.57 18.16 117.55 42.79 171.17 0.88 5.77 9.83 8.57 11.43 2.05 0.23-0.3 0.67-0.89 0.89-1.18 2.67-6.62 4.92 2.58 2.3 5.57-0.2 7.44-0.81 15.96 4.67 22.38 14.52 26.16 33.18 52.89 59.71 67.21 22.17 16.71 50.16 23.09 78.1 19.94 5.66-0.15 11.26-1.65 16.62-3.49 20.23-2.98 39.62-14.84 54.18-27.72 20.91-15.65 35.6-38.89 47.36-62.14 7.46-8.45-7.03-15.53-4.51-24.8 1.35-1.44 2.94-2.64 4.26-4.13 13.46-13.46-1.97 4.39 0.8 8.93 1.34 2.02 3.18 5.11 6.11 4.22 9.94-25.45 22.67-50.06 29.45-76.72 5.23-15.1 9.2-30.8 11.57-46.61 4.39-14.41 3.47-36.98-2.34-52.98-15.19 2.94-33.2 0.62-49.24 1.51-2.13 1.25-2.92 0.55-2.68-1.79-2.23-3.38 2.06-3.52 4.5-3.44 23.68 2.19 47.99 1.98 71.01-3.78 3.9 0.61 1.44-5.2-0.82-3.92-31.5-22.56-49.21-58.88-75.45-86.95-48.74-51.18-128.95-53.21-190.66-26.29m-121.06 208.73c-13.18 7.52-7 27.57 0.87 37.41 11.63 9.85 20.27 22.95 25.94 37.06 2.11 3.6 3.75 10.66 8.93 9.58-0.84-12.22-8.72-22.52-15.27-32.41-0.79-7.1-1.24-16.6-4.46-21.99 1.33-13.06-15.08-16.89-19.12-6.08-3.71-8.09 6.97-12.66 13.64-10.44-0.69-5.56-0.94-18.06-10.53-13.13m359.52 17.59c5.62-7.72 22.01-6.04 19.14 5.44-4.7 1.03-2.86-5.18-6.22-6.57-8.75-0.5-15.68 7.98-17.77 15.64-3.15 4.02-2.1 7.34 1.07 10.74 1.62 19.51-23.48 24.28-21.65 44.25 14.01-0.28 13.94-18.01 21-26.62 9.34-19.78 40.96-35.01 22.97-59.29-12.51-9.34-20.1 6-18.54 16.41m-10.16 26.09c-0.94 4.66-3.76 8.73-4.39 13.45 3.87-0.16 12.22-14.07 4.39-13.45m-291.4 129.62c-4.45 2.81-7.24 7.94-10.18 12.25-3.52 3.95-4.85 11.31-6.74 16.83-1.8 2.36-3.61 4.76-5 7.39-3.27 3.38-5.55 10.42-9.01 14.68-2.17 3.31-4.01 6.79-6.27 10.03-3.28 2.5-4.89 6.97-6.58 10.73-3.67 2.08-5.5 6.44-7.42 10.06-3.42 6.78-9.29 12.02-13.98 18-1.87 2.41-2.15 5.72-4 8.21-3.04 2.19-3.69 8.13-6.26 11.39-2.09 4.57-5.4 8.4-7.91 12.71-2.16 2.46-3.5 8.52-6.64 11.76-2.2-0.39-3.7 1.71-2.75 3.69 11.08 1.2 20.27 9.57 31.71 9.27 3.45-3.19 7.19-8.82 10.68-10.87 1.42-0.59 2.31-1.97 3.21-3.17 2.27-0.97 4.65-5.75 7.02-2.78-2.68 7.14-3.12 15.11-7.13 21.78 7.33 6.71 20.8 7.78 30.17 12.01 4.33-5.11 7.58-11.95 11.12-17.85 1.67-1.92 3.17-4.02 4.12-6.39 8.31-11.95 16.72-28.2 25.11-41.45 0.76-0.94 1.35-2.02 1.82-3.13 1.5-1 2.48-2.55 3.15-4.21 2.66 1.41 1.38 4.66 2.11 7.34-0.09 0.46-0.25 1.39-0.34 1.85-2.9 2.88-1.14 10.94-1.9 15.93-2.2 3.16-3.28 11-3.19 15.7-0.53 4.82-1.54 9.6-1.93 14.47l-0.07 0.9c-3.97 9.32-3.27 23.47-5.74 34.25-0.07 0.65-0.22 1.95-0.3 2.6-3.47 5.43-2.29 15.38-5.89 22.13-1.87 2.59-3.83 5.17-4.92 8.21-2.92 3.4-5.57 8.64-8.17 12.83-2.91-0.53-5.43 10.05 2.05 5.06 87.54 1.86 175.2 2.15 262.86 1.83 0.39-1.89 0.96-5-1.77-5.13-2.44-4.72-4.53-10.02-8.02-13.94-1.76-3.74-4.16-7.13-5.99-10.82-2.17-6.21-2.54-13.28-3.94-19.13-0.33-4.43-0.38-9.05-2.46-13.05-1.11-8.18-1.47-19.09-3.53-25.72-3.07-7.51-0.6-18.09-4.14-24.29-0.26-1.43-0.78-4.3-1.04-5.74-1.29-4.91 0.02-11.5-1.83-15.2-0.02-0.47-0.07-1.42-0.09-1.9 0.36-2.85 0.32-5.89 0.8-8.63 0.49 0.33 1.47 1 1.97 1.33 1.98 3.48 4.41 6.72 6.11 10.39 3.67 3.91 5.18 9.63 8.05 13.6 1.93 3.19 3.45 6.68 5.92 9.55 6.32 5.09 6.02 14.61 12.26 19.58 0.27 0.47 0.81 1.4 1.08 1.87 2.79 5.61 6.72 10.64 9.66 16.24 7.12 0.08 22.89-6.55 24.93-11.01-2.12-4.71-0.89-11.38-3.75-15.08-2.21-11.25 7.07-2.02 11.2 0.06 5.08 2.84 9.18 7.32 13.56 11.17 5.82-5.42 27.95-3.42 21.03-12.28-0.79-4.2-4.6-7.52-5.53-11.85-2.29-4.2-4.11-8.61-7.44-12.04-2.28-4.02-4.62-7.88-6.6-11.99-3.51-3.91-4.12-10.16-8.5-13.15-1.56-3.97-4.19-10.05-6.69-12.51-1.37-3.26-3.45-6.27-5.1-9.23-2.77-4.32-5.1-8.87-7.66-13.25-0.89-4.18-4.36-7.22-6.46-10.73-2.11-4.78-5.29-9.96-7.7-13.94-2.12-4.07-5.59-7.49-6.12-12.24-1.31-4.54-2.79-11.02-5.88-13.74-2.11-4.3-5.21-8.98-9.26-11.15-4.36-4.64-11.07-6.52-17.05-8.18-6.35 1.27-16.73-3.73-19.68 3.85-0.7-0.95-4.78 1.5-3.52 2.17-2.52 1.73-4.98 3.58-6.96 5.9-4.8 4.98-11.97 7.7-16.58 12.31-12.02 4.21-23.95 10.84-36.41 13.56-17.23 4.9-35.39 5.86-52.84 1.15-1.69-1.32-3.91-0.72-5.81-0.71-11.17-4.39-22.55-8.91-33.33-13.95-5.61-3.95-13.63-9.22-19.59-14.33-1.81-1.74-3.72-3.34-5.65-4.86-1.45-0.91-4.03-4.62-6.53-5.06-6.29-0.16-12.6-0.02-18.79-0.13-6.14 1.58-12.18 4.26-17.14 8.19m234.17 114.23c2.89 29.37 8.97 58.4 12.99 87.66 1.65 11.78 8.33 24.63 16.96 31.92 2.75-13.85-8.65-29.93-0.89-44.52 1-7.44 12.82-12.54 6.64-20.1-12.44-17.42-21.64-41.48-35.7-54.96m69.11 54.2c-10.89 2.5-20.49 8.49-30.97 11.79-12.38 12.16-9.28 31-3.89 45.68-1.95 7.71-0.6 15.76-0.34 22.96-3.88-5.35-13.03 3.33-8.21 6.63 15.86 10.55 29.17-10.35 31.12-24.56 1.58-3.87-4.89-9.77 0.07-12.16 10.67 16.37 12.31 35.04 8.73 54.44-3.3 9.54 16.48 11.95 16.02 7.13-0.54-0.99-0.43-1.89 0.33-2.68 3.73 1.55 7.91-1.56 8.92-5.16 4.34-0.06 7.54-2.88 10.86-6.36 6.58-6.52 12.34-14.91 13.25-24.29 1.37 1.31 2.31 7.01 3.49 4.54 2.15-1.44 4.7-2.46 6.51-4.38 1.28 1.16 4.52 3.13 5.53 1.08 9.82-4.99 14.52-16.75 16.51-27.07 6.23-25.14-11.31-48.03-31.09-61.24-10.71-1.81-19.57 8.34-30.26 7.04-5.9-4.21-10.69-10.34-17.07-13.52-3.19 4.66 10.08 16.39 0.49 20.13m-368.48-7.08c-12.31-1.87-24.39-14.72-36.66-6.15-5.88 4.19-16.16 4.32-17.25 12.9-0.43 4.1-3.02 12.02 3.89 9.66 3.46 5.27-6.52-0.17-5.98 5.11-0.87 1.7-1.63 3.46-2.13 5.31-0.15 1.37-0.43 4.11-0.57 5.48-3.83 3.86 2.11 6.95 5.75 5.99 1.68 0.82 2.93 2.2 3.16 4.16-3.83 11.42-4.78 28 6.02 35.32 2.78 4.84 11.76 3.77 14.19-1.19 0.66 2.14-0.84 5.42 1.64 6.77 0.74 8.38 13.17 14.56 19.09 7.14 1.49-0.27 3.02-0.65 4.61-0.48 1.75 8.62 13.34 5.3 19.34 2.79 11.6 10.82 24.34-8.96 22.24-20.36 0.04-1.25 0.02-2.48-0.07-3.68-0.15-1.48-0.44-4.43-0.59-5.91-1.82-3.87-9.16-1.93-8.05 2.09-4.36 1.7-3.75-7.31-1.43-9.23 11.09-6.86 23.12-16.84 22.11-31.23 2.88-8.83-6.64-7.69-11.8-10.15-6.25-0.7-16.33-10.8-19.25-4.65-4.87 2.53-1.72-6.53-4.36-9.02 2.24-3.15 2.99-7.04 3.24-10.81-6.52 1.32-9.03 13.25-17.14 10.14m74.24 90.93c0.14 35.36-33.62 62.54-25.93 98.45 20.83 6.11 42.59 9.29 64.24 10.56 1.41-0.02 2.86-0.11 4.33-0.35 13.87 0.94 27.71-1.03 41.6-0.78 10.9-15.75 11.69-38.21 27.54-50.39-1.39-4.45-1.01-9.08-1.39-13.62 7.18-6.52 25.81-5.85 25.47 3.79 0.06 3.39-1.08 6.66-1.8 9.93 16.14 11.56 17.62 33.83 27.3 50.05 14.33 1.32 28.68 1.23 43.1 1.16 19.85-0.44 46.15-4.17 67.39-10.16 2.65-14.21 0.75-32.29-7.4-45-6.07-13.55-15.2-26.27-16.74-41.68-2.81-4.88 0.8-15.96-6.02-17.35-9.6-4.62-18.91 5.15-28.96 2.16-1.02-0.78-2.12-1.16-3.3-1.13-42.22-1.44-90.72-1.15-135.4-1.62-12.58 0.04-25.64-1.59-37.93 0.8-4.06-0.45-8.28-0.98-12.25-1.41-7.31 2.56-23.94-5.56-23.85 6.59m-39.39 107.5c-0.66 6.75 20.13 4.63 13.75 13.58-7.09 1.57-7.8 11.64-14.51 12.77-2.66-2.6-0.73-3.46 0.66-5.13 2.87-2.23 5.38-4.97 7.43-7.97 5.78-4.1-8.02-5.85-10.22-7.75-9.02-2.95-24.8-13.06-29.76-3.51-0.02 4.75 2.14 13.78 3.66 15.85 12.6 6.3-8.39 5.34-11.27 6.41-8.54 4.11-22.41 4.22-26.11 14.4-6.7 5.38-3.06-5.21-8.11-1.58-6.27 2.16-11.88 5.94-18.27 7.91-14.12 6.14 15.74 2.4 19.98 2.95 3.54 5.53-7.35 0.42-9.25 2.62-8.49-1.75-24.51-2.61-18.4 9.82-0.03 0.47-0.09 1.42-0.12 1.9-0.13 0.46-0.41 1.38-0.54 1.84-0.74 7.95 10.85 2.66 15.41 4.45 68.29-0.64 136.61-0.31 204.92-0.14-0.29-2.95 0.44-5.79-1.14-8.28 1.97-0.19 2.21-8.25 0.18-8.07l0.04-2.8c-0.4-5.3-0.77-10.62-0.97-15.87-2.9 0.42-7.28 1.7-5.91-2.86 5.6-2.89 15.97-9.26 2.61-9.01-1.56-6 2.16-22.75-8.73-14.11-13.61-4.93-29.01-1.2-43.31-2.92-14.57-1.13-28.62-5.8-43.27-6.04 2.66-4.85-15.88-5.76-18.75 1.54m262.86 4.53c-15.66-0.31-31.87 1.54-46.74 1.86-11.59-6.8-4.55 11.86-7.97 15.7-12.48-0.78-0.89 5.56 3.36 8.18-5.24 3.39-6.94 8.18-6.3 15.85-1.91 0.31 0.35 4.31 0.37 6.08-0.4 2.4-0.37 4.86 0.08 7.38 0.64 1.62-0.05 3.24-0.51 4.85-0.64 6.8 8.9 3.03 12.79 3.99 64.94-0.47 129.91 0.08 194.87-0.27 3.53 0.34 6.75 0.29 10.46 0.5 4.1 0.18 1.29-6.03 0.81-8.45 3.28-2.52 2.18-14.45-5.89-10 0.03-0.49 0.09-1.47 0.11-1.96 3.48 1.15 4.3-3.41 0.43-1.57-6.57-3.82-13.52-7.1-20.67-9.58-2.68-0.45-4.92 5.78-8.92-0.39-5.45-7.66-15.64-8.74-23.55-12.43-1.42-4.94-14.77 2.49-16.1-3.78 4.38-1.06 5.08-4.65 4.1-8.61 1.46-3.05 2.17-6.48 2.49-9.84-2.04-7.34-18.44-1.68-24.93 2.1-6.2 1.27-12.73 3.62-17.88 7.1 2.28 3.64 6.1 6 9.3 8.93 4.02 3.27 6.8 1.7 1.75 6.21-3.12 0.5-3.45-2.22-4.89-3.91-3.77-3.67-8.11-6.87-10.88-11.34 1.78-6.87 12.02-5.19 15.67-9.91-1.19-2.93-5.63-3.91-8.14-5.93-17.85 2.61-35.22 8.81-53.22 9.24z" fill="#020000" stroke="#020000"/>
   <path d="m3154.1 1091.9c61.71-26.92 141.92-24.89 190.66 26.29 26.24 28.07 43.95 64.39 75.45 86.95-46.34 9.6-102.86-0.34-144.16-25.25-13.25-10.34-22.29-24.58-33.31-36.9-7.52 1.76-6.83 13.48-8.76 19.22l-0.14 0.87c-4.56 17.97 5.25 35.13 17.27 47.52-2.58 3.31-8 0.36-11.28 1.6-10.17-1.7-20.01-5.01-28.93-10.14-12.69-11.2-29.5-19.92-38.91-33.97 6.26 4.24 29.57 2.75 13.12-2.26l-0.79-0.15c-10.71-7.87-24.77-11.58-32.61-23.02 5.29-4.38 17.8-0.32 21.14-6.54-7.65-4.3-19.78-2.31-25.62-10.3 2.87-8.71 12.3-11.04 18.82-16.11-5.52-5.41-15.21 4.52-19.99 3.3 5.83-7.78 15.23-13.68 21.91-21.23-3.55-1.18-7.31-0.33-10.28 1.77-4.49 2.27-8.84 3.5-3.59-1.65z" fill="#a24200" stroke="#a24200"/>
   <path d="m3157.7 1093.6c2.97-2.1 6.73-2.95 10.28-1.77-6.68 7.55-16.08 13.45-21.91 21.23 4.78 1.22 14.47-8.71 19.99-3.3-6.52 5.07-15.95 7.4-18.82 16.11 5.84 7.99 17.97 6 25.62 10.3-3.34 6.22-15.85 2.16-21.14 6.54 7.84 11.44 21.9 15.15 32.61 23.02-12.92-5.08-28.41-11.6-35.06-24.59 3.04-4.51 15.58 1.04 17.41-4.91-6.98-1.82-14.44-3.29-20.01-8.14-2.26-8.01 7.58-10.93 11.19-16.41-5.2-0.99-8.53 5.5-13.48 3.8-3.42-5.33 6.14-7.47 2.05-12 1.34-4.1 14.1-4.38 11.27-9.88z" fill="#661900" stroke="#661900"/>
   <path d="m3134 1113.9c3.23-9.84 11.02-17.5 20.16-21.97-5.25 5.15-0.9 3.92 3.59 1.65 2.83 5.5-9.93 5.78-11.27 9.88 4.09 4.53-5.47 6.67-2.05 12 4.95 1.7 8.28-4.79 13.48-3.8-3.61 5.48-13.45 8.4-11.19 16.41 5.57 4.85 13.03 6.32 20.01 8.14-1.83 5.95-14.37 0.4-17.41 4.91 6.65 12.99 22.14 19.51 35.06 24.59l0.79 0.15c1.68 9.17-16.71-3.91-18.02 0.88 12.79 13.38 27.05 26.8 43.81 35.35 8.92 5.13 18.76 8.44 28.93 10.14 8.04 4.85 13.78-0.49 18.22-0.43 2.14 2.38 9.74 2.51 7.64 7.12-43.99 5.07-89.35-14.44-117.53-48.08-1.87-2.5-5.1-3.71-6.12-6.84-4.03-5.08-10.09-4.04-15.19-3.65 8.53-1.79 12.72-15.36 2.45-16.07-14.78 0.25 7.39-2.67 2.42-10-0.77-5.4-10.95 1.62-10.17-3.55 4.62-7.29-11.93 0.35-11.59-6.61 4.62-1.53 19.3-2.46 8.17-5.08 1.81-3.6 0.55-5.82-4.27-4.96 7.03-4.22 15.79 8.73 20.08-0.18z" fill="#3e0500" stroke="#3e0500"/>
   <path d="m3068.2 1139.4c8.38-16 27.64-25.84 45.72-25.29 4.82-0.86 6.08 1.36 4.27 4.96-4.45 2.22-9.14 3.76-13.78 5.36-3.25 8.36 20.19-0.58 12.52 6.45-10.1 7.58 16.38-3.24 13.95 6.81-4.05 4-13.11 3.2-14.8 9.14 6.32 1.7 14.73-3.78 18.73 4.5-3.34 5.34-12.05 7.52-14.05 14.38 5.56-1.69 10.06-2.91 5.36 3.51 3.92 1 10.52-4.93 15.98-5.19-33.91 23.82-52.38 63.18-63.69 101.97-0.61 3.72-4.72 13.75-4.68 3.06-3.72-30.54 16.39-55.92 24.35-83.8-9.89 7.38-15.59 20.33-20.14 32.01 0.24-4.02-5.49-7.89-5.67-2.51-16.33 26.59-15.34 58.35-12.17 88.36 2.39 29.82 11.88 59.24 29.12 83.84-0.22 0.29-0.66 0.88-0.89 1.18-1.76 0.74-4.72 4.98-5.44 0.98-19.87-40.92-39.19-86.15-30.28-132.39 3.52-26.44 18.41-49.2 27.21-73.9-16.05 12.99-20.71 35.6-29.32 52.77-0.79-17.51 8.37-37.95 17.67-54.53 2.9-2.92 5.09-6.59 5.71-10.71-6.02 0.9-10.92 5.56-13.88 10.63-2.42 2.06-7.59 12.11-7.64 5.26 4.31-15.92 12.65-30.64 15.84-46.85z" fill="#9e4100" stroke="#9e4100"/>
   <path d="m3104.4 1124.4c4.64-1.6 9.33-3.14 13.78-5.36 11.13 2.62-3.55 3.55-8.17 5.08-0.34 6.96 16.21-0.68 11.59 6.61-0.78 5.17 9.4-1.85 10.17 3.55 4.97 7.33-17.2 10.25-2.42 10 10.27 0.71 6.08 14.28-2.45 16.07 5.1-0.39 11.16-1.43 15.19 3.65-5.46 0.26-12.06 6.19-15.98 5.19 4.7-6.42 0.2-5.2-5.36-3.51 2-6.86 10.71-9.04 14.05-14.38-4-8.28-12.41-2.8-18.73-4.5 1.69-5.94 10.75-5.14 14.8-9.14 2.43-10.05-24.05 0.77-13.95-6.81 7.67-7.03-15.77 1.91-12.52-6.45z" fill="#681b00" stroke="#681b00"/>
   <path d="m3034.1 1214.9c13.86-23.81 19.17-53.42 34.09-75.52-3.19 16.21-11.53 30.93-15.84 46.85 0.05 6.85 5.22-3.2 7.64-5.26 4.05-3.86 12.72-9.85 8.17 0.08-9.3 16.58-18.46 37.02-17.67 54.53 8.61-17.17 13.27-39.78 29.32-52.77-8.8 24.7-23.69 47.46-27.21 73.9-8.91 46.24 10.41 91.47 30.28 132.39 0.72 4 3.68-0.24 5.44-0.98-1.6 6.52-10.55 3.72-11.43-2.05-24.63-53.62-42.8-111.6-42.79-171.17z" fill="#420600" stroke="#420600"/>
   <path d="m3234 1162.2c1.93-5.74 1.24-17.46 8.76-19.22 11.02 12.32 20.06 26.56 33.31 36.9-14.17-7.68-22.24-22.13-32.55-33.81-7.45 0.15-5.32 12.04-9.52 16.13z" fill="#722400" stroke="#722400"/>
   <path d="m3234 1162.2c4.2-4.09 2.07-15.98 9.52-16.13 10.31 11.68 18.38 26.13 32.55 33.81 41.3 24.91 97.82 34.85 144.16 25.25 2.26-1.28 4.72 4.53 0.82 3.92-23.02 5.76-47.33 5.97-71.01 3.78-2.44-0.08-6.73 0.06-4.5 3.44-9.67-0.5-28.79-1.88-31.52-6.22-30.47-0.99-52.77-27.64-77.2-42.71-3.07 0.54-0.19 5.19-0.91 7.3-3.44 6.66-2.04-8.17-2.05-11.57l0.14-0.87z" fill="#3f0500" stroke="#3f0500"/>
   <path d="m3251.1 1210.6c-12.02-12.39-21.83-29.55-17.27-47.52 0.01 3.4-1.39 18.23 2.05 11.57 1.49 15.1 11.38 27.17 22.16 37.12-4.44-0.06-10.18 5.28-18.22 0.43 3.28-1.24 8.7 1.71 11.28-1.6z" fill="#661400" stroke="#661400"/>
   <path d="m3142 1164c1.02 3.13 4.25 4.34 6.12 6.84-6.08-4.46-12.09 4.58-17.2 7.11-26.53 23.74-39.62 58.27-50.44 91.29-0.75-1.11-1.49-2.2-2.17-3.27 11.31-38.79 29.78-78.15 63.69-101.97z" fill="#5f0e00" stroke="#5f0e00"/>
   <path d="m3167.1 1166.8c1.31-4.79 19.7 8.29 18.02-0.88 16.45 5.01-6.86 6.5-13.12 2.26 9.41 14.05 26.22 22.77 38.91 33.97-16.76-8.55-31.02-21.97-43.81-35.35z" fill="#741f00" stroke="#741f00"/>
   <path d="m3235.9 1174.7c0.72-2.11-2.16-6.76 0.91-7.3 24.43 15.07 46.73 41.72 77.2 42.71 2.73 4.34 21.85 5.72 31.52 6.22-0.24 2.34 0.55 3.04 2.68 1.79 7.79 24.2 13.71 49.9 12.87 75.67 6.23 1.14 5.9-7.95 9.4-11.55 2.58-4.36 5.12-8.97 5.53-14.13 5.02-1.61 0.43 24.02 2.21 32.87l-0.2 0.9c-3.9 27.15-11.27 54.38-26.16 77.89-1.32 1.49-2.91 2.69-4.26 4.13-2.84 8.18 2.86 16.59 4.51 24.8-11.76 23.25-26.45 46.49-47.36 62.14-6.21-1.89-10.58 3.88-15.75 6.18-10.49 4.73-22.28 4.91-33.52 4.53 0.2 6.27-1.64 11.8-4.91 17.01-5.36 1.84-10.96 3.34-16.62 3.49-13.46 1.48-34.4 0.57-38.24-15.79-13.91 4.47-27.38-7.6-39.86-4.15-26.53-14.32-45.19-41.05-59.71-67.21-5.48-6.42-4.87-14.94-4.67-22.38 3.58-2.43 3.08-8.06-0.4-10.45-18.97-23.13-22.89-53.42-28.55-81.61-1.34-9.26-0.14-18.62 2.56-27.5 6.63 1.49 2.82 16.06 10.56 14.59 0.62-6.34 2.78-12.33 4.89-18.29 10.82-33.02 23.91-67.55 50.44-91.29 5.11-2.53 11.12-11.57 17.2-7.11 28.18 33.64 73.54 53.15 117.53 48.08 2.1-4.61-5.5-4.74-7.64-7.12-10.78-9.95-20.67-22.02-22.16-37.12m-133.95 100.21c-2.78 2.41-13.75 9.2-5.28 9.99 25.61-14.59 50.9 3.46 74.07 13.64 10.23 1.09 24.05 3.35 29.33-7.82 2.07-1.11 4.01-6.39 1.42-8.58-22.05 0.83-39.11-15.48-59.87-19.96-14.32-2.07-28.91 3.61-39.67 12.73m199.05-12.1c-16.14 4.67-30.5 14.11-46.42 19.03-18.7-8.21-10.84 17.99 1.48 16.26 19.78 3.97 36.03-8.64 52.93-16.15 13.68-4.83 27.71-0.68 40.9 2.78 0.52-6.36-6.56-9.92-11.26-12.67-9.6-7.72-24.74-12.84-37.63-9.25m-163.39 49.75c-13.31 3.09-28.46 11.23-33.51 24.22 10.55-5.79 18.64-18.92 32.45-20.16 5.06 2.67 8.79-8.3 1.06-4.06m161.82-0.41c-4.67 2.18 4.41 5.17 5.92 4.53 12 2.06 20.76 10.99 29.17 19.09 4.01 1.65 1.48-4.25-0.38-4.83-8.85-9.83-21.06-18.34-34.71-18.79m-117.27 8.79c4.72 2.55 23.36 21.75 10.46 17.39-25.28-13.79-60.22-14.52-84.77 2.03-2.02 7.19 14.09 23.79 20.26 19.47 14.81 10.24 37.21 8.72 51.65-1.16 7.28 2.14 15.32-7.76 19.54-13.44 0.14-0.99 1.13-2.82-0.38-3.16 5.2-8.52-9.19-22.55-16.76-21.13m72.27-0.73c-5.32 7.79 9.71-0.72 0 0m-4.12 2.87c-4.59 5.47-12.37 11.84-9.09 19.33 1.39 7.5 14.27 19.03 19.55 14.89 0.32 0.2 0.95 0.59 1.27 0.79 10.85 11.72 35.89 9.64 50.1 2.7 8.55 0.07 28.93-16.92 17.84-22.77-26.06-15.14-59.91-11.87-83.98 1.15-6.74-4.77 12.84-13.05 4.31-16.09m-35.91 29.95c-6.85 7.79-10.96 18.07-14.84 27.65-3.36 10.16 8.39 15.22 15.46 18.17 3.11-3.75-2.57-7.92-2.93-12.15-0.59-11.09 5.95-24.7 2.31-33.67m-14.07 50.19c-4.96 9.16-14.64 12.43-23.18 17.13 2.04 9.15 16.46 7.16 22.46 13.24 0.91 6.37 7 11.15 7.43 17.05 5.31-4.4-3.89-11.8-2.86-17.52 18.17 0.13 37.4-0.44 53.68-9.53 1.02-3.43-2.88-2.77-4.75-1.61-21.63 10.79-48.46 11.88-70.07 0.76 3.06-5.37 24.59-12.4 17.29-19.52m48.11 54.13c-7.08 1.97-14.53 1.68-21.58 3.53 3.66 5.53 12.52 3.92 18.05 7.29 6.34 4.85 10.51-13.44 3.53-10.82z" fill="#ffa837" stroke="#ffa837"/>
   <path d="m3060 1181c2.96-5.07 7.86-9.73 13.88-10.63-0.62 4.12-2.81 7.79-5.71 10.71 4.55-9.93-4.12-3.94-8.17-0.08z" fill="#6b1000" stroke="#6b1000"/>
   <path d="m3077.9 1217.2c4.55-11.68 10.25-24.63 20.14-32.01-7.96 27.88-28.07 53.26-24.35 83.8-0.04 10.69 4.07 0.66 4.68-3.06 0.68 1.07 1.42 2.16 2.17 3.27-2.11 5.96-4.27 11.95-4.89 18.29-7.74 1.47-3.93-13.1-10.56-14.59-2.7 8.88-3.9 18.24-2.56 27.5-0.76 0.96-1.58 1.84-2.47 2.65-3.17-30.01-4.16-61.77 12.17-88.36 2.8 3.41 1.11 8.18 0.71 12.12 4.59 0 4.13-6.29 4.96-9.61z" fill="#440600" stroke="#440600"/>
   <path d="m3072.2 1214.7c0.18-5.38 5.91-1.51 5.67 2.51-0.83 3.32-0.37 9.61-4.96 9.61 0.4-3.94 2.09-8.71-0.71-12.12z" fill="#6d3100" stroke="#6d3100"/>
   <path d="m3348.2 1218.1c16.04-0.89 34.05 1.43 49.24-1.51 5.81 16 6.73 38.57 2.34 52.98 0.92-17 2.82-34.66-2.45-51.12-21.6 1.86-36.81 24.62-29.44 46.17-1.97 8.85-4.9 19.27 2.58 17.6-3.5 3.6-3.17 12.69-9.4 11.55 0.84-25.77-5.08-51.47-12.87-75.67z" fill="#3d0400" stroke="#3d0400"/>
   <path d="m3367.9 1264.6c-7.37-21.55 7.84-44.31 29.44-46.17 5.27 16.46 3.37 34.12 2.45 51.12-2.37 15.81-6.34 31.51-11.57 46.61-4.15 5.07-2.4-3.85-2.55-6.58 4.1-23.06 0.18-48.33-6.58-69.46-4.28 6.38-2.28 16.91-5.31 24.76-1.32 4.37-3.6 8.35-5.8 12.31 0.86-4.18 0.86-8.44-0.08-12.59z" fill="#9c4100" stroke="#9c4100"/>
   <path d="m3373.8 1264.9c3.03-7.85 1.03-18.38 5.31-24.76 6.76 21.13 10.68 46.4 6.58 69.46-4.69 28.58-17.77 55.11-33.01 79.08-2.77-4.54 12.66-22.39-0.8-8.93 14.89-23.51 22.26-50.74 26.16-77.89 0.51 4.92-4.18 14.84 0.88 16.18-0.64-10.97 4.26-21.71 1.71-32.51-4.87 0.14 0.27 11.42-2.39 15.43-1.78-8.85 2.81-34.48-2.21-32.87-2.23 2.21-2.24-1.71-2.23-3.19z" fill="#3d0400" stroke="#3d0400"/>
   <path d="m3102 1274.9c10.76-9.12 25.35-14.8 39.67-12.73 20.76 4.48 37.82 20.79 59.87 19.96 2.59 2.19 0.65 7.47-1.42 8.58 1.18-3.69-2.51-1.65-4.14-0.48 0.3-0.53 0.91-1.58 1.22-2.1 0.17-0.59 0.52-1.76 0.7-2.35-24.41-0.73-42.57-22.71-67.47-20.61-8.24 0.5-15.01 5.43-22.45 8.33-2.16-0.43-4.13 0.5-5.98 1.4z" fill="#701300" stroke="#701300"/>
   <path d="m3301 1262.8c12.89-3.59 28.03 1.53 37.63 9.25-6.89-1.32 7.61 7.22 0.11 5.38-29.99-12.33-52.6 20.37-82 17.08-3-0.74-5.36-2.8-7.75-4.59 7.59-0.81 15.93 4.56 23.11 0.35 20.06-8.77 39.83-24.29 62.95-15.97-6.79-8.18-19.65-9.39-29.62-9.16-17.31 2.97-31.26 15.14-48.34 18.86-0.61-1.05-1.45-1.78-2.51-2.17 15.92-4.92 30.28-14.36 46.42-19.03z" fill="#7a1800" stroke="#7a1800"/>
   <path d="m3107.9 1273.5c7.44-2.9 14.21-7.83 22.45-8.33 24.9-2.1 43.06 19.88 67.47 20.61-0.18 0.59-0.53 1.76-0.7 2.35-8.44 2.76-16.96-3.21-24.22 2.27-19.76-6.75-40.42-27.79-61.89-15.16-3.29 1.3-7 2.1-3.11-1.74z" fill="#fc7a00" stroke="#fc7a00"/>
   <path d="m3257.1 1284c17.08-3.72 31.03-15.89 48.34-18.86 9.97-0.23 22.83 0.98 29.62 9.16-23.12-8.32-42.89 7.2-62.95 15.97-8.08-3.72-16.83-0.17-25.01-2.31-0.12-3.93 6.98-1.85 9.13-3.79l0.87-0.17z" fill="#fd7900" stroke="#fd7900"/>
   <path d="m3370.5 1282.2c-7.48 1.67-4.55-8.75-2.58-17.6 0.94 4.15 0.94 8.41 0.08 12.59 2.2-3.96 4.48-7.94 5.8-12.31-0.01 1.48 0 5.4 2.23 3.19-0.41 5.16-2.95 9.77-5.53 14.13z" fill="#661a00" stroke="#661a00"/>
   <path d="m3111 1275.2c21.47-12.63 42.13 8.41 61.89 15.16 7.26 4.21 15.28-1.65 23-0.17-29.25 17.39-54.35-22.11-84.89-14.99z" fill="#7d1a00" stroke="#7d1a00"/>
   <path d="m3338.7 1277.4c7.5 1.84-7-6.7-0.11-5.38 4.7 2.75 11.78 6.31 11.26 12.67-13.19-3.46-27.22-7.61-40.9-2.78-16.9 7.51-33.15 20.12-52.93 16.15-12.32 1.73-20.18-24.47-1.48-16.26 1.06 0.39 1.9 1.12 2.51 2.17l-0.87 0.17c-5.32-3.79-15.64 2.95-7.23 5.75 2.39 1.79 4.75 3.85 7.75 4.59 29.4 3.29 52.01-29.41 82-17.08z" fill="#400100" stroke="#400100"/>
   <path d="m3102 1274.9c1.85-0.9 3.82-1.83 5.98-1.4-3.89 3.84-0.18 3.04 3.11 1.74 30.54-7.12 55.64 32.38 84.89 14.99 1.63-1.17 5.32-3.21 4.14 0.48-5.28 11.17-19.1 8.91-29.33 7.82-23.17-10.18-48.46-28.23-74.07-13.64-8.47-0.79 2.5-7.58 5.28-9.99z" fill="#430100" stroke="#430100"/>
   <path d="m3249 1289.9c-8.41-2.8 1.91-9.54 7.23-5.75-2.15 1.94-9.25-0.14-9.13 3.79 8.18 2.14 16.93-1.41 25.01 2.31-7.18 4.21-15.52-1.16-23.11-0.35z" fill="#bd5100" stroke="#bd5100"/>
   <path d="m3378.2 1301c2.66-4.01-2.48-15.29 2.39-15.43 2.55 10.8-2.35 21.54-1.71 32.51-5.06-1.34-0.37-11.26-0.88-16.18l0.2-0.9z" fill="#160100" stroke="#160100"/>
   <path d="m3172.9 1290.4c7.26-5.48 15.78 0.49 24.22-2.27-0.31 0.52-0.92 1.57-1.22 2.1-7.72-1.48-15.74 4.38-23 0.17z" fill="#c75200" stroke="#c75200"/>
   <path d="m3033 1300.7c9.59-4.93 9.84 7.57 10.53 13.13-6.67-2.22-17.35 2.35-13.64 10.44 2.89 5.83 4.68 14.15 11.95 15.71-1.4-6.27-0.45-10.65 7.17-9.63 3.22 5.39 3.67 14.89 4.46 21.99 6.55 9.89 14.43 20.19 15.27 32.41-5.18 1.08-6.82-5.98-8.93-9.58-5.67-14.11-14.31-27.21-25.94-37.06-7.87-9.84-14.05-29.89-0.87-37.41z" fill="#fba748" stroke="#fba748"/>
   <path d="m3392.6 1318.3c-1.56-10.41 6.03-25.75 18.54-16.41 17.99 24.28-13.63 39.51-22.97 59.29-7.06 8.61-6.99 26.34-21 26.62-1.83-19.97 23.27-24.74 21.65-44.25-3.17-3.4-4.22-6.72-1.07-10.74 5-6.16 18.28-1.61 11.43 7.31 7.71-1.77 9.47-10.31 12.56-16.38 2.87-11.48-13.52-13.16-19.14-5.44z" fill="#fda744" stroke="#fda744"/>
   <path d="m3062.5 1300.4c5.66 28.19 9.58 58.48 28.55 81.61 3.48 2.39 3.98 8.02 0.4 10.45 2.62-2.99 0.37-12.19-2.3-5.57-17.24-24.6-26.73-54.02-29.12-83.84 0.89-0.81 1.71-1.69 2.47-2.65z" fill="#550d00" stroke="#550d00"/>
   <path d="m3352.7 1388.7c15.24-23.97 28.32-50.5 33.01-79.08 0.15 2.73-1.6 11.65 2.55 6.58-6.78 26.66-19.51 51.27-29.45 76.72-2.93 0.89-4.77-2.2-6.11-4.22z" fill="#843d00" stroke="#843d00"/>
   <path d="m3137.6 1312.6c7.73-4.24 4 6.73-1.06 4.06-13.81 1.24-21.9 14.37-32.45 20.16 5.05-12.99 20.2-21.13 33.51-24.22z" fill="#7b2300" stroke="#7b2300"/>
   <path d="m3299.4 1312.1c13.65 0.45 25.86 8.96 34.71 18.79 1.86 0.58 4.39 6.48 0.38 4.83-8.41-8.1-17.17-17.03-29.17-19.09-1.51 0.64-10.59-2.35-5.92-4.53z" fill="#762400" stroke="#762400"/>
   <path d="m3029.9 1324.2c4.04-10.81 20.45-6.98 19.12 6.08-7.62-1.02-8.57 3.36-7.17 9.63-7.27-1.56-9.06-9.88-11.95-15.71z" fill="#fb7d0d" stroke="#fb7d0d"/>
   <path d="m3387.7 1332.8c2.09-7.66 9.02-16.14 17.77-15.64 3.36 1.39 1.52 7.6 6.22 6.57-3.09 6.07-4.85 14.61-12.56 16.38 6.85-8.92-6.43-13.47-11.43-7.31z" fill="#fb7e14" stroke="#fb7e14"/>
   <path d="m3182.2 1320.9c7.57-1.42 21.96 12.61 16.76 21.13-2.28-0.98-4.33-2.34-6.3-3.74 12.9 4.36-5.74-14.84-10.46-17.39z" fill="#6f1e00" stroke="#6f1e00"/>
   <path d="m3254.4 1320.2c9.71-0.72-5.32 7.79 0 0z" fill="#a74c04" stroke="#a74c04"/>
   <path d="m3250.3 1323.1c8.53 3.04-11.05 11.32-4.31 16.09-6.4 2.94-2.89 8.03 2.06 2.88-6.39 7.36 8.49 11.59 12.71 15.25-5.28 4.14-18.16-7.39-19.55-14.89-3.28-7.49 4.5-13.86 9.09-19.33z" fill="#691c00" stroke="#691c00"/>
   <path d="m3107.8 1340.4c24.55-16.55 59.49-15.82 84.77-2.03 1.97 1.4 4.02 2.76 6.3 3.74 1.51 0.34 0.52 2.17 0.38 3.16-4.21 0.87-6.74-5.21-11.46-5.15-3.34-0.8-7.77-3.69-10.44-2.26 0.32 10.71-7.03 21.86-18.01 23.64-5.05 0.22-9.87 0.67-14.81 0.39-11.45-2.79-16.66-14.55-16.76-25.4-4.63-0.14-9.07 1.05-13.03 3.31-2.64 1.43-7.06 6.82-6.94 0.6m41.12 17.75c13.2 4.07 30.05-12.87 20.91-24.12-7.1-1.69-20.41 0.01-11.15 8.12-4.64 9.5-18.31 0.79-16.04-7.98-20.33-4.06-6.67 25.98 6.28 23.98z" fill="#010000" stroke="#010000"/>
   <path d="m3246 1339.2c24.07-13.02 57.92-16.29 83.98-1.15 3.96 1.48 3.22 8.36-0.98 4.24-4.76-2.9-9.71-6.9-15.67-5.76 0.52 9.13-4.32 17.14-11.37 22.49-8.98 4.95-19.45 3.72-28.18-0.82-6.26-5.35-11.4-12.99-10-21.68-5.36-0.34-10.48 4.06-15.72 5.56-4.95 5.15-8.46 0.06-2.06-2.88m47.17 1.92c2.46 7.91-13.54 5.28-13.44-2 1.59-10.03-18.14-4.57-10.98 4.07 4.07 25.77 49.43 14.35 37.44-9.25-5.51-3.28-21.92-1.97-13.02 7.18z" fill="#020000" stroke="#020000"/>
   <path d="m3293.2 1341.1c-8.9-9.15 7.51-10.46 13.02-7.18 2.26 8.98-7.34 9.12-13.02 7.18z" fill="#fffffd" stroke="#fffffd"/>
   <path d="m3149 1358.1c-12.95 2-26.61-28.04-6.28-23.98-2.27 8.77 11.4 17.48 16.04 7.98 5.41 1.03 13.71-0.07 11.15-8.12 9.14 11.25-7.71 28.19-20.91 24.12z" fill="#692000" stroke="#692000"/>
   <path d="m3158.7 1342.1c-9.26-8.11 4.05-9.81 11.15-8.12 2.56 8.05-5.74 9.15-11.15 8.12z" fill="#fffffd" stroke="#fffffd"/>
   <path d="m3268.8 1343.2c-7.16-8.64 12.57-14.1 10.98-4.07-0.1 7.28 15.9 9.91 13.44 2 5.68 1.94 15.28 1.8 13.02-7.18 11.99 23.6-33.37 35.02-37.44 9.25z" fill="#6a1f00" stroke="#6a1f00"/>
   <path d="m3114.8 1339.8c3.96-2.26 8.4-3.45 13.03-3.31 0.1 10.85 5.31 22.61 16.76 25.4-1.95 5.2-12.07-1.23-16.99-3.41-5.48-3.46-21.01-10.97-12.8-18.68z" fill="#fff" stroke="#fff"/>
   <path d="m3248.1 1342c5.24-1.5 10.36-5.9 15.72-5.56-1.4 8.69 3.74 16.33 10 21.68 2.52 2.59 5.98 3.75 9.15 5.35-7.37 0.97-14.26-2.79-20.89-5.43-0.32-0.2-0.95-0.59-1.27-0.79-4.22-3.66-19.1-7.89-12.71-15.25z" fill="#fffffe" stroke="#fffffe"/>
   <path d="m3313.3 1336.5c5.96-1.14 10.91 2.86 15.67 5.76-1.76 8.32-9.75 13.2-16.72 17-5.22 3.48-23.98 7.86-10.32-0.27 7.05-5.35 11.89-13.36 11.37-22.49z" fill="#fff" stroke="#fff"/>
   <path d="m3177.4 1337.8c2.67-1.43 7.1 1.46 10.44 2.26 13.42 4.66 0.71 13.86-7.56 17.19-5.91 2.84-17.35 10.64-20.89 4.19 10.98-1.78 18.33-12.93 18.01-23.64z" fill="#fff" stroke="#fff"/>
   <path d="m3330 1338c11.09 5.85-9.29 22.84-17.84 22.77 0.03-0.38 0.1-1.15 0.14-1.53 6.97-3.8 14.96-8.68 16.72-17 4.2 4.12 4.94-2.76 0.98-4.24z" fill="#633202" stroke="#633202"/>
   <path d="m3128.1 1359.8c-6.17 4.32-22.28-12.28-20.26-19.47-0.12 6.22 4.3 0.83 6.94-0.6-8.21 7.71 7.32 15.22 12.8 18.68 0.13 0.35 0.39 1.04 0.52 1.39z" fill="#672f02" stroke="#672f02"/>
   <path d="m3187.8 1340.1c4.72-0.06 7.25 6.02 11.46 5.15-4.22 5.68-12.26 15.58-19.54 13.44l0.52-1.4c8.27-3.33 20.98-12.53 7.56-17.19z" fill="#5b3202" stroke="#5b3202"/>
   <path d="m3382.4 1344.4c7.83-0.62-0.52 13.29-4.39 13.45 0.63-4.72 3.45-8.79 4.39-13.45z" fill="#d99653" stroke="#d99653"/>
   <path d="m3214.4 1353c3.64 8.97-2.9 22.58-2.31 33.67 0.36 4.23 6.04 8.4 2.93 12.15-7.07-2.95-18.82-8.01-15.46-18.17 3.88-9.58 7.99-19.86 14.84-27.65z" fill="#fe7f0a" stroke="#fe7f0a"/>
   <path d="m3159.4 1361.4c3.54 6.45 14.98-1.35 20.89-4.19l-0.52 1.4c-14.44 9.88-36.84 11.4-51.65 1.16-0.13-0.35-0.39-1.04-0.52-1.39 4.92 2.18 15.04 8.61 16.99 3.41 4.94 0.28 9.76-0.17 14.81-0.39z" fill="#fed8ae" stroke="#fed8ae"/>
   <path d="m3262 1358.1c6.63 2.64 13.52 6.4 20.89 5.43-3.17-1.6-6.63-2.76-9.15-5.35 8.73 4.54 19.2 5.77 28.18 0.82-13.66 8.13 5.1 3.75 10.32 0.27-0.04 0.38-0.11 1.15-0.14 1.53-14.21 6.94-39.25 9.02-50.1-2.7z" fill="#fbd39c" stroke="#fbd39c"/>
   <path d="m3352.1 1408.7c-1.65-8.21-7.35-16.62-4.51-24.8-2.52 9.27 11.97 16.35 4.51 24.8z" fill="#733e03" stroke="#733e03"/>
   <path d="m3200.3 1403.2c7.3 7.12-14.23 14.15-17.29 19.52 21.61 11.12 48.44 10.03 70.07-0.76 1.87-1.16 5.77-1.82 4.75 1.61-16.28 9.09-35.51 9.66-53.68 9.53-1.03 5.72 8.17 13.12 2.86 17.52-0.43-5.9-6.52-10.68-7.43-17.05-6-6.08-20.42-4.09-22.46-13.24 8.54-4.7 18.22-7.97 23.18-17.13z" fill="#6f1f00" stroke="#6f1f00"/>
   <path d="m3248.4 1457.3c6.98-2.62 2.81 15.67-3.53 10.82-5.53-3.37-14.39-1.76-18.05-7.29 7.05-1.85 14.5-1.56 21.58-3.53z" fill="#f77f11" stroke="#f77f11"/>
   <path d="m3091 1474c4.96-3.93 11-6.61 17.14-8.19-6.69 5.79 9.04 3.75 11.99 8.04-5.46-1.26-14.67-3.26-16.09 4.05 7.51 3.54 15.45 6.18 23.28 8.97-0.16 3.44-0.2 7.07-1.01 10.5-0.41-3.33 0-6.45-0.74-9.63-11.86-3.76-22.96-9.39-34.57-13.74z" fill="#968ebe" stroke="#968ebe"/>
   <path d="m3108.2 1465.8c6.19 0.11 12.5-0.03 18.79 0.13 3.78 8.1 0.32 12.18-6.8 7.91-2.95-4.29-18.68-2.25-11.99-8.04z" fill="#fbf8ff" stroke="#fbf8ff"/>
   <path d="m3126.9 1465.9c2.5 0.44 5.08 4.15 6.53 5.06-11.67 8.68 14.64 13.67 5.65 4.86 5.96 5.11 13.98 10.38 19.59 14.33-9.55-0.25-19.04-0.29-28.51 0 0.55-5.71 0.76-11.43 0.02-17.09-3.28 2.83-2.65 9.43-2.89 13.77-7.83-2.79-15.77-5.43-23.28-8.97 1.42-7.31 10.63-5.31 16.09-4.05 7.12 4.27 10.58 0.19 6.8-7.91z" fill="#796eaf" stroke="#796eaf"/>
   <path d="m3314.2 1469.7c2.95-7.58 13.33-2.58 19.68-3.85 5.49 4.01-16.21 10.4-19.88 7.15-0.03-1.12 0.04-2.22 0.2-3.3z" fill="#f7f5ff" stroke="#f7f5ff"/>
   <path d="m3333.8 1465.9c5.98 1.66 12.69 3.54 17.05 8.18-11.15 3.42-21.69 8.56-32.77 12.21-2.5 0.35-2.01 3.27-2.39 5.11 0.6-6.22-1.03-12.25-1.77-18.35 3.67 3.25 25.37-3.14 19.88-7.15z" fill="#7c71b0" stroke="#7c71b0"/>
   <path d="m3310.6 1471.9c-1.26-0.67 2.82-3.12 3.52-2.17-0.16 1.08-0.23 2.18-0.2 3.3 0.74 6.1 2.37 12.13 1.77 18.35-0.25 2.96-0.15 6.2 0.19 9.24 1.57 5.06 1.84 10.3 2.02 15.63-0.22 2.98 0.21 6.23 0.19 9.3-0.2 2.87-0.95 2.91-2.08 0.33 0.13-6.74-1.35-13.34-2.21-19.95-0.59-5.5 2.13-12-1.92-16.6 0.03-3.77 0.12-7.5 0.26-11.2 0.64-2.7 0.13-4.78-1.54-6.23z" fill="#191142" stroke="#191142"/>
   <path d="m3289 1477c5.17-2.3 9.54-8.07 15.75-6.18-14.56 12.88-33.95 24.74-54.18 27.72 3.27-5.21 5.11-10.74 4.91-17.01 11.24 0.38 23.03 0.2 33.52-4.53z" fill="#f87f12" stroke="#f87f12"/>
   <path d="m3139.1 1475.8c8.99 8.81-17.32 3.82-5.65-4.86 1.93 1.52 3.84 3.12 5.65 4.86z" fill="#f9f1ff" stroke="#f9f1ff"/>
   <path d="m3310.6 1471.9c1.67 1.45 2.18 3.53 1.54 6.23-2.26 1.96-9.92 4.04-8.5-0.33 1.98-2.32 4.44-4.17 6.96-5.9z" fill="#f6f0fe" stroke="#f6f0fe"/>
   <path d="m3127.3 1486.8c0.24-4.34-0.39-10.94 2.89-13.77 0.74 5.66 0.53 11.38-0.02 17.09l-0.17 0.91c-1.98 11.53-1.6-0.43-2.7-4.23z" fill="#18194f" stroke="#18194f"/>
   <path d="m3080.8 1486.2c2.94-4.31 5.73-9.44 10.18-12.25 11.61 4.35 22.71 9.98 34.57 13.74 0.74 3.18 0.33 6.3 0.74 9.63-0.13 1.86-0.14 3.75-0.14 5.65-3.71 2.11-7.57-1.2-11.24-1.92-10.19-7.32-26.27-5.84-34.11-14.85z" fill="#f7f4ff" stroke="#f7f4ff"/>
   <path d="m3318.1 1486.3c11.08-3.65 21.62-8.79 32.77-12.21 4.05 2.17 7.15 6.85 9.26 11.15 0.09 5.22-6.8 4.55-10.18 6.53-4.67 2.27-15.57 2.1-13.41 6.7-7.23-2.19-14.85 8.45-20.64 2.18-0.34-3.04-0.44-6.28-0.19-9.24 0.38-1.84-0.11-4.76 2.39-5.11z" fill="#f7f4ff" stroke="#f7f4ff"/>
   <path d="m3287.1 1490.1c4.61-4.61 11.78-7.33 16.58-12.31-1.42 4.37 6.24 2.29 8.5 0.33-0.14 3.7-0.23 7.43-0.26 11.2-8.31 0.7-16.57 0.71-24.82 0.78z" fill="#796eb0" stroke="#796eb0"/>
   <path d="m3155.8 1482.1c12.48-3.45 25.95 8.62 39.86 4.15 3.84 16.36 24.78 17.27 38.24 15.79-27.94 3.15-55.93-3.23-78.1-19.94z" fill="#f78014" stroke="#f78014"/>
   <path d="m3360.2 1485.2c3.09 2.72 4.57 9.2 5.88 13.74-4.25-2.34-7.74 2.48-11.74 3.43 6.94-2.71 1.72-11.67-4.32-10.64 3.38-1.98 10.27-1.31 10.18-6.53z" fill="#968ebc" stroke="#968ebc"/>
   <path d="m3074.1 1503c1.89-5.52 3.22-12.88 6.74-16.83 7.84 9.01 23.92 7.53 34.11 14.85-10.37-0.4-28.6-16.1-31.1-0.01-3.58-2.57-7.85-2.33-9.75 1.99z" fill="#958fb6" stroke="#958fb6"/>
   <path d="m3127.3 1486.8c1.1 3.8 0.72 15.76 2.7 4.23-0.07 1.59-0.21 4.76-0.28 6.35-0.39 1.47-1.19 4.4-1.58 5.87-0.32-2.69-0.99-2.8-1.99-0.3 0-1.9 0.01-3.79 0.14-5.65 0.81-3.43 0.85-7.06 1.01-10.5z" fill="#757288" stroke="#757288"/>
   <path d="m3130.2 1490.2c9.47-0.29 18.96-0.25 28.51 0 10.78 5.04 22.16 9.56 33.33 13.95 1.04 0.53 2.13 1.06 3.25 1.61-21.92 0.61-43.89 0.32-65.8 0.11-0.41-2.78-0.12-5.74 0.26-8.41 0.07-1.59 0.21-4.76 0.28-6.35l0.17-0.91z" fill="#f7f4ff" stroke="#f7f4ff"/>
   <path d="m3250.7 1503.7c12.46-2.72 24.39-9.35 36.41-13.56 8.25-0.07 16.51-0.08 24.82-0.78 4.05 4.6 1.33 11.1 1.92 16.6-21.62 0.19-43.23-0.1-64.82 0.23 0.15-1.89 4.76-0.61 1.67-2.49z" fill="#f7f4ff" stroke="#f7f4ff"/>
   <path d="m3336.6 1498.4c-2.16-4.6 8.74-4.43 13.41-6.7 6.04-1.03 11.26 7.93 4.32 10.64-11.97 5-24.18 9.4-36.35 13.87-0.18-5.33-0.45-10.57-2.02-15.63 5.79 6.27 13.41-4.37 20.64-2.18z" fill="#7a6fb2" stroke="#7a6fb2"/>
   <path d="m3083.8 1501.1c2.5-16.09 20.73-0.39 31.1 0.01 3.67 0.72 7.53 4.03 11.24 1.92-0.97 4.35-1.86 8.75-2.06 13.23-13.18-4.55-27.07-9.72-40.28-15.16z" fill="#796faf" stroke="#796faf"/>
   <path d="m3128.2 1503.3c0.39-1.47 1.19-4.4 1.58-5.87-0.38 2.67-0.67 5.63-0.26 8.41 21.91 0.21 43.88 0.5 65.8-0.11-1.12-0.55-2.21-1.08-3.25-1.61 1.9-0.01 4.12-0.61 5.81 0.71 3.24 1.83 5.8 5.32-1.98 3.4-21.88-2.52-48.06 3.56-67.83-2.27 0.03-0.67 0.1-2 0.13-2.66z" fill="#a7a0c9" stroke="#a7a0c9"/>
   <path d="m3354.3 1502.4c4-0.95 7.49-5.77 11.74-3.43 0.53 4.75 4 8.17 6.12 12.24-14.63 8.83-34.88 14.34-52 21.16-0.77-2.31-1.44-4.57-2.02-6.8 0.02-3.07-0.41-6.32-0.19-9.3 12.17-4.47 24.38-8.87 36.35-13.87z" fill="#f7f4ff" stroke="#f7f4ff"/>
   <path d="m3074.1 1503c1.9-4.32 6.17-4.56 9.75-1.99 13.21 5.44 27.1 10.61 40.28 15.16-0.15 4.09 0.18 8.27 0.08 12.44-2.98 6.93-10.45 0.54-15.21-0.72-12.98-5.5-30.89-8.85-39.9-17.5 1.39-2.63 3.2-5.03 5-7.39z" fill="#f6f3ff" stroke="#f6f3ff"/>
   <path d="m3126.2 1503c1-2.5 1.67-2.39 1.99 0.3-0.03 0.66-0.1 1.99-0.13 2.66-0.34 6.18-1.04 12.4-2.03 18.54-0.41 3.03 0.12 6.31 0.09 9.42-0.39 3.3-0.82 6.6-1.14 9.92-0.23 1.6-0.67 4.79-0.89 6.39-4.86 7.17-2.36-15.92 0.13-21.56 0.1-4.17-0.23-8.35-0.08-12.44 0.2-4.48 1.09-8.88 2.06-13.23z" fill="#1a1146" stroke="#1a1146"/>
   <path d="m3197.8 1504.8c17.45 4.71 35.61 3.75 52.84-1.15 3.09 1.88-1.52 0.6-1.67 2.49 21.59-0.33 43.2-0.04 64.82-0.23 0.86 6.61 2.34 13.21 2.21 19.95-0.08 2.63-0.1 5.3-0.05 8.01h-1c0.03-5.29 0-10.56-0.1-15.8-62.48-0.09-124.98-0.29-187.44 0.09-0.36 1.58-1.09 4.73-1.45 6.31 0.99-6.14 1.69-12.36 2.03-18.54 19.77 5.83 45.95-0.25 67.83 2.27 7.78 1.92 5.22-1.57 1.98-3.4z" fill="#7b70b0" stroke="#7b70b0"/>
   <path d="m3060.1 1525.1c3.46-4.26 5.74-11.3 9.01-14.68 9.01 8.65 26.92 12 39.9 17.5 4.76 1.26 12.23 7.65 15.21 0.72-2.49 5.64-4.99 28.73-0.13 21.56v2.87c-0.21 2.57-0.24 5.18-0.09 7.83 0.04 0.5 0.11 1.49 0.14 1.99 64.69-0.33 129.6 1.08 194.18-0.65l-0.01 0.95c-0.5 2.66-0.4 5.6-0.65 8.37-65.13 1.86-130.95-1.56-195.69 1.58 1.16-2.76 1.8-24.33-1.97-14.9 0.2-4.7 0.58-9.37 0.86-14.04-16.83-7.65-37.52-11.97-54.73-21.23-2.47-1.79-4.48 0.31-6.03 2.13z" fill="#7a6faf" stroke="#7a6faf"/>
   <path d="m3372.2 1511.2c2.41 3.98 5.59 9.16 7.7 13.94-3.84-6.35-8.81 1.26-13.67 2.1-15.05 4.66-29.17 12-44.71 16.1 0.61 8.03-2.25 11.58-1.45 1.57 0-3.91 0.03-7.8 0.11-11.64l0.02-0.91c17.12-6.82 37.37-12.33 52-21.16z" fill="#7a70ae" stroke="#7a70ae"/>
   <path d="m3127.5 1518.2c62.46-0.38 124.96-0.18 187.44-0.09 0.1 5.24 0.13 10.51 0.1 15.8-62.97 0.19-125.94 0.15-188.9 0.02 0.03-3.11-0.5-6.39-0.09-9.42 0.36-1.58 1.09-4.73 1.45-6.31z" fill="#f8f5ff" stroke="#f8f5ff"/>
   <path d="m3060.1 1525.1c1.55-1.82 3.56-3.92 6.03-2.13 17.21 9.26 37.9 13.58 54.73 21.23-0.28 4.67-0.66 9.34-0.86 14.04-0.05 0.45-0.13 1.36-0.17 1.81-23.24-8.08-41.13-15.18-66-24.92 2.26-3.24 4.1-6.72 6.27-10.03z" fill="#f6f3ff" stroke="#f6f3ff"/>
   <path d="m3366.2 1527.2c4.86-0.84 9.83-8.45 13.67-2.1 2.1 3.51 5.57 6.55 6.46 10.73-20.02 9.52-43.17 18.01-64.3 24.25-1.26-5.44 1.54-11.76-0.54-16.78 15.54-4.1 29.66-11.44 44.71-16.1z" fill="#f7f3ff" stroke="#f7f3ff"/>
   <path d="m3316 1525.9c1.13 2.58 1.88 2.54 2.08-0.33 0.58 2.23 1.25 4.49 2.02 6.8l-0.02 0.91c-5.54-0.59-2.44 7.03-3.26 10.56l-0.98-0.02c-0.2-3.42 0.17-6.58 0.11-9.91-0.05-2.71-0.03-5.38 0.05-8.01z" fill="#5e5a70" stroke="#5e5a70"/>
   <path d="m3316.9 1543.8c0.82-3.53-2.28-11.15 3.26-10.56-0.08 3.84-0.11 7.73-0.11 11.64-0.48 0.11-1.44 0.33-1.91 0.44l-1.24-1.52z" fill="#160d47" stroke="#160d47"/>
   <path d="m3126.1 1533.9c62.96 0.13 125.93 0.17 188.9-0.02h1c0.06 3.33-0.31 6.49-0.11 9.91-63.65 0.35-127.3 0.3-190.93 0.03 0.32-3.32 0.75-6.62 1.14-9.92z" fill="#7b6fb1" stroke="#7b6fb1"/>
   <path d="m3047.2 1545.9c1.69-3.76 3.3-8.23 6.58-10.73 24.87 9.74 42.76 16.84 66 24.92-0.3 4.91-0.41 9.88-0.56 14.84-0.67 1.66-1.65 3.21-3.15 4.21 1.75-3.47 3.23-9.91-2.73-9.55-22.27-6.87-44.27-15.74-66.14-23.69z" fill="#7a6fb0" stroke="#7a6fb0"/>
   <path d="m3386.3 1535.9c2.56 4.38 4.89 8.93 7.66 13.25-1.35-0.97-2.61-3.65-4.46-2.4-20.56 9.96-42.54 16.49-63.64 25.14-1.89 0.44-1.71 2.44-2.09 3.94-0.5-0.33-1.48-1-1.97-1.33-0.02-4.22 0.42-8.35 0.31-12.49-0.03-0.46-0.08-1.39-0.11-1.86 21.13-6.24 44.28-14.73 64.3-24.25z" fill="#7a6fae" stroke="#7a6fae"/>
   <path d="m3124.1 1550.2c0.22-1.6 0.66-4.79 0.89-6.39 63.63 0.27 127.28 0.32 190.93-0.03l0.98 0.02 1.24 1.52c-0.02 5.61 0.1 11.25 0.19 16.92-64.58 1.73-129.49 0.32-194.18 0.65-0.03-0.5-0.1-1.49-0.14-1.99 64.32 0.1 128.65 0.17 192.97-0.02-0.01-3.7-0.02-11.1-0.03-14.81-63.86-0.27-127.72 0.07-191.57-0.17 0.02 2.48-0.4 4.87-1.28 7.17v-2.87z" fill="#b0a8d7" stroke="#b0a8d7"/>
   <path d="m3320 1544.9c-0.8 10.01 2.06 6.46 1.45-1.57 2.08 5.02-0.72 11.34 0.54 16.78 0.03 0.47 0.08 1.4 0.11 1.86-2.15-1.34-4.25-2.18-3.83 1.24l0.01-0.95c-0.09-5.67-0.21-11.31-0.19-16.92 0.47-0.11 1.43-0.33 1.91-0.44z" fill="#676474" stroke="#676474"/>
   <path d="m3039.8 1555.9c1.92-3.62 3.75-7.98 7.42-10.06 21.87 7.95 43.87 16.82 66.14 23.69 5.96-0.36 4.48 6.08 2.73 9.55-0.47 1.11-1.06 2.19-1.82 3.13-2.06 1.6-3.71 5.53-6.78 4.12-20.45-7.61-40.75-15.62-61.31-22.9-5.09-0.59-8.81-2.12-6.38-7.53z" fill="#f6f3ff" stroke="#f6f3ff"/>
   <path d="m3125.4 1545.9c63.85 0.24 127.71-0.1 191.57 0.17 0.01 3.71 0.02 11.11 0.03 14.81-64.32 0.19-128.65 0.12-192.97 0.02-0.15-2.65-0.12-5.26 0.09-7.83 0.88-2.3 1.3-4.69 1.28-7.17z" fill="#f8f5ff" stroke="#f8f5ff"/>
   <path d="m3389.5 1546.7c1.85-1.25 3.11 1.43 4.46 2.4 1.65 2.96 3.73 5.97 5.1 9.23 0.83 5.54-5.8 5.6-9.46 7.35-20.76 5.68-39.19 17.73-59.72 20.49-1.7-3.67-4.13-6.91-6.11-10.39 0.38-1.5 0.2-3.5 2.09-3.94 21.1-8.65 43.08-15.18 63.64-25.14z" fill="#f6f3ff" stroke="#f6f3ff"/>
   <path d="m3120 1558.3c3.77-9.43 3.13 12.14 1.97 14.9-0.37 2.92 0.08 6.13-0.59 9.09-0.73-2.68 0.55-5.93-2.11-7.34 0.15-4.96 0.26-9.93 0.56-14.84 0.04-0.45 0.12-1.36 0.17-1.81z" fill="#1c114e" stroke="#1c114e"/>
   <path d="m3025.8 1573.9c4.69-5.98 10.56-11.22 13.98-18-2.43 5.41 1.29 6.94 6.38 7.53-4.05 0.5-8.84 4.49-7.51 8.82-4.34-2.97-9.55-2.61-12.85 1.65z" fill="#9890be" stroke="#9890be"/>
   <path d="m3399.1 1558.3c2.5 2.46 5.13 8.54 6.69 12.51-13.3 6.15-32.37 10.82-40.4 15.81-8.8 3.5-22.21 5.37-27.42 13.12-2.87-3.97-4.38-9.69-8.05-13.6 20.53-2.76 38.96-14.81 59.72-20.49 3.66-1.75 10.29-1.81 9.46-7.35z" fill="#7a6fb1" stroke="#7a6fb1"/>
   <path d="m3318.3 1563.2c-0.42-3.42 1.68-2.58 3.83-1.24 0.11 4.14-0.33 8.27-0.31 12.49-0.48 2.74-0.44 5.78-0.8 8.63l-0.93-0.17c-0.51-3.06 0.95-6.34-0.86-9-0.4-0.59-1.19-1.75-1.58-2.34 0.25-2.77 0.15-5.71 0.65-8.37z" fill="#241c53" stroke="#241c53"/>
   <path d="m3038.7 1572.3c-1.33-4.33 3.46-8.32 7.51-8.82 20.56 7.28 40.86 15.29 61.31 22.9 3.07 1.41 4.72-2.52 6.78-4.12-8.39 13.25-16.8 29.5-25.11 41.45-0.47-6.28-9.2-5.35-13.3-8.64-15.61-4.79-30.87-10.88-46.13-16.77-12.83-5.32 2.64-13.08 10.47-7.4 14.9 2.92 27.65 12.77 42.63 14.76-1.26 3.71 8.49 3.85 12.82 5.22 3.21-4.29 5.87-9.02 8.19-13.84-20.99-10.17-43.8-15.53-65.17-24.74z" fill="#7a6fae" stroke="#7a6fae"/>
   <path d="m3025.8 1573.9c3.3-4.26 8.51-4.62 12.85-1.65 21.37 9.21 44.18 14.57 65.17 24.74-2.32 4.82-4.98 9.55-8.19 13.84-4.33-1.37-14.08-1.51-12.82-5.22-14.98-1.99-27.73-11.84-42.63-14.76-5.12-5.04-15.01-2.37-18.38-8.74 1.85-2.49 2.13-5.8 4-8.21z" fill="#f7f3ff" stroke="#f7f3ff"/>
   <path d="m3365.4 1586.7c8.03-4.99 27.1-9.66 40.4-15.81 4.38 2.99 4.99 9.24 8.5 13.15-21.79 9.74-45.58 20.52-70.4 25.33-2.47-2.87-3.99-6.36-5.92-9.55 5.21-7.75 18.62-9.62 27.42-13.12z" fill="#f7f3ff" stroke="#f7f3ff"/>
   <path d="m3122 1573.2c64.74-3.14 130.56 0.28 195.69-1.58 0.39 0.59 1.18 1.75 1.58 2.34-64.96 0.41-129.98-0.42-194.87 0.39-2.41 2.9-2.01 9.3-1.93 13.52 65.08 0.33 130.18 0.19 195.27 0.07 3.05 0.59 1.88-3.14 2.39-4.98l0.93 0.17c0.02 0.48 0.07 1.43 0.09 1.9-0.31 2.9 0.97 8.19-5.2 5.01-64.89-0.09-129.77 0.17-194.64-0.13-0.06-1.44-0.18-4.32-0.24-5.77 0.09-0.46 0.25-1.39 0.34-1.85 0.67-2.96 0.22-6.17 0.59-9.09z" fill="#c2bae8" stroke="#c2bae8"/>
   <path d="m3124.4 1574.3c64.89-0.81 129.91 0.02 194.87-0.39 1.81 2.66 0.35 5.94 0.86 9-0.51 1.84 0.66 5.57-2.39 4.98-65.09 0.12-130.19 0.26-195.27-0.07-0.08-4.22-0.48-10.62 1.93-13.52z" fill="#f8f4ff" stroke="#f8f4ff"/>
   <path d="m3015.6 1593.5c2.57-3.26 3.22-9.2 6.26-11.39 3.37 6.37 13.26 3.7 18.38 8.74-7.83-5.68-23.3 2.08-10.47 7.4-4.87-1.25-9.18-4.18-14.17-4.75z" fill="#958eb8" stroke="#958eb8"/>
   <path d="m3119.1 1600c0.76-4.99-1-13.05 1.9-15.93 0.06 1.45 0.18 4.33 0.24 5.77 64.87 0.3 129.75 0.04 194.64 0.13 6.17 3.18 4.89-2.11 5.2-5.01 1.85 3.7 0.54 10.29 1.83 15.2-67.94-0.43-135.88-0.11-203.81-0.16z" fill="#7a6fae" stroke="#7a6fae"/>
   <path d="m3414.3 1584c1.98 4.11 4.32 7.97 6.6 11.99-22.66 5.15-45.66 16.66-68.38 24.28-0.3 3.19 2.7 5.65 3.64 8.64-6.24-4.97-5.94-14.49-12.26-19.58 24.82-4.81 48.61-15.59 70.4-25.33z" fill="#7a70af" stroke="#7a70af"/>
   <path d="m3015.6 1593.5c4.99 0.57 9.3 3.5 14.17 4.75 15.26 5.89 30.52 11.98 46.13 16.77 4.1 3.29 12.83 2.36 13.3 8.64-0.95 2.37-2.45 4.47-4.12 6.39-8.7 10.94-23.9-4.58-34.93-6.48 2.64-7.17 0.27-19.48-6.25-6.68-0.9 1.2-1.79 2.58-3.21 3.17-3.34-0.61-6.37-1.15-9.51-2.14-6.98-5.54-19.39-3.69-23.49-11.71 2.51-4.31 5.82-8.14 7.91-12.71z" fill="#f7f4ff" stroke="#f7f4ff"/>
   <path d="m3352.5 1620.3c22.72-7.62 45.72-19.13 68.38-24.28 3.33 3.43 5.15 7.84 7.44 12.04-2.03 5.57-9.2 4.9-13.51 7.54-5.23 1.69-10.16 4.31-15.55 5.42-4.13-2.08-13.41-11.31-11.2-0.06-0.15 9.6-14.01 7.84-20.15 11.95-4.49 4.2-8.36 2.57-10.69-2.1-0.27-0.47-0.81-1.4-1.08-1.87-0.94-2.99-3.94-5.45-3.64-8.64z" fill="#f7f3ff" stroke="#f7f3ff"/>
   <path d="m3115.9 1615.7c-0.09-4.7 0.99-12.54 3.19-15.7 67.93 0.05 135.87-0.27 203.81 0.16 0.26 1.44 0.78 4.31 1.04 5.74 0.14 4.07 0.72 8.04 0.93 12.15-68.51-0.11-137.03-0.17-205.53 0.03-1.82 0.4-2.81-0.98-3.44-2.38z" fill="#f7f3ff" stroke="#f7f3ff"/>
   <path d="m3001 1618c3.14-3.24 4.48-9.3 6.64-11.76 4.1 8.02 16.51 6.17 23.49 11.71-7.43-1.34-21.3-8.96-18.35 4.21-3.83-1.68-7.68-3.35-11.78-4.16z" fill="#928ebb" stroke="#928ebb"/>
   <path d="m3324 1605.9c3.54 6.2 1.07 16.78 4.14 24.29-65.09-5.32-134.39-0.57-201.07-2.31-3.98 1.17-11.04-2.61-13.04 2.29 0.39-4.87 1.4-9.65 1.93-14.47 0.63 1.4 1.62 2.78 3.44 2.38 68.5-0.2 137.02-0.14 205.53-0.03-0.21-4.11-0.79-8.08-0.93-12.15z" fill="#7a6faf" stroke="#7a6faf"/>
   <path d="m3428.3 1608c0.93 4.33 4.74 7.65 5.53 11.85-4.14 0.69-8 2.34-11.57 4.47 1.06-4.49-2.03-9.95-7.47-8.78 4.31-2.64 11.48-1.97 13.51-7.54z" fill="#958dbe" stroke="#958dbe"/>
   <path d="m3043.9 1616.9c6.52-12.8 8.89-0.49 6.25 6.68 11.03 1.9 26.23 17.42 34.93 6.48-3.54 5.9-6.79 12.74-11.12 17.85-5.68-7.57-20.3-11.44-30.17-12.01 4.01-6.67 4.45-14.64 7.13-21.78-2.37-2.97-4.75 1.81-7.02 2.78z" fill="#7970b0" stroke="#7970b0"/>
   <path d="m3012.8 1622.2c-2.95-13.17 10.92-5.55 18.35-4.21 3.14 0.99 6.17 1.53 9.51 2.14-3.49 2.05-7.23 7.68-10.68 10.87-2.49-6.05-11.91-5.34-17.18-8.8z" fill="#7a6eb3" stroke="#7a6eb3"/>
   <path d="m3399.2 1621c5.39-1.11 10.32-3.73 15.55-5.42 5.44-1.17 8.53 4.29 7.47 8.78-3.56 2.43-12.2 1.77-9.46 7.81-4.38-3.85-8.48-8.33-13.56-11.17z" fill="#7c6fb1" stroke="#7c6fb1"/>
   <path d="m2998.3 1621.7c-0.95-1.98 0.55-4.08 2.75-3.69 4.1 0.81 7.95 2.48 11.78 4.16 5.27 3.46 14.69 2.75 17.18 8.8-11.44 0.3-20.63-8.07-31.71-9.27z" fill="#f2eafb" stroke="#f2eafb"/>
   <path d="m3422.3 1624.4c3.57-2.13 7.43-3.78 11.57-4.47 6.92 8.86-15.21 6.86-21.03 12.28-2.74-6.04 5.9-5.38 9.46-7.81z" fill="#fcf8fe" stroke="#fcf8fe"/>
   <path d="m3388 1620.9c2.86 3.7 1.63 10.37 3.75 15.08-8.16 3.05-19.96 3.88-24.93 11.01-2.94-5.6-6.87-10.63-9.66-16.24 2.33 4.67 6.2 6.3 10.69 2.1 6.14-4.11 20-2.35 20.15-11.95z" fill="#7a6fb1" stroke="#7a6fb1"/>
   <path d="m3394.3 1642.4c9.59-3.74-3.68-15.47-0.49-20.13 6.38 3.18 11.17 9.31 17.07 13.52 10.69 1.3 19.55-8.85 30.26-7.04 19.78 13.21 37.32 36.1 31.09 61.24-1.37 3.18-7.24 13.27-7.44 5.02 1.04-3.34 4.04-8.62 2.47-10.84-6.07 5.3-6.62 15.14-10.78 22.08-4.9-1.69-10.67 9.97-11.6 2.94 1.37-3.61 3.16-7.13 3.23-11.08-6.72 1.27-5.15 11.08-7.93 16.1-1.46 7.77-8.37 11.69-15.35 13.54-1.2-5.18 2.38-14.23-0.83-17.66-7.1-0.12-1.12 12.2-3.58 17.18-3.43 14.16-20.01 13.07-29.61 19.91 3.58-19.4 1.94-38.07-8.73-54.44-4.7-7.78-6.83 7.28-7.78 11.52-2.55 5.01-8.27 21.12-13.48 17.65 5.02-7.18-3.15-14.05-1.38-22.04-5.39-14.68-8.49-33.52 3.89-45.68 10.48-3.3 20.08-9.29 30.97-11.79z" fill="#ffa939" stroke="#ffa939"/>
   <path d="m3025.8 1635.3c8.11 3.11 10.62-8.82 17.14-10.14-0.25 3.77-1 7.66-3.24 10.81-1.99 2.44 1.42 5.11 1.04 7.78-11.28 6.8-29.33 18.83-40.92 7.91-0.17-5.79-6.45 1.06-7.65 3.58-6.79-0.31-10.09 15.09-14.13 10.77 1.65-4.62 4.77-13.19-2.26-14.3-6.91 2.36-4.32-5.56-3.89-9.66 1.09-8.58 11.37-8.71 17.25-12.9 12.27-8.57 24.35 4.28 36.66 6.15z" fill="#ffa83b" stroke="#ffa83b"/>
   <path d="m3114 1630.2c2-4.9 9.06-1.12 13.04-2.29 66.68 1.74 135.98-3.01 201.07 2.31 0.01 4.63 0.33 9.25 0.8 13.88-71.99-0.31-143.98 0.1-215.95-0.2 0.1-4.32 0.7-8.52 0.97-12.8l0.07-0.9z" fill="#f7f3ff" stroke="#f7f3ff"/>
   <path d="m3328.1 1630.2c2.06 6.63 2.42 17.54 3.53 25.72-73.65 0.37-147.32-0.43-220.95 0.39-0.95 2.97-1.64 6.01-2.5 9.02 2.47-10.78 1.77-24.93 5.74-34.25-0.27 4.28-0.87 8.48-0.97 12.8-1.07 3.46 3.27 0.59 5.09 0.74-2.79 3.02-4.31 6.36-1.49 10.5 69.64-0.1 139.3-0.49 208.95 0.19-0.18-8.09-1.68-10.75 3.4-11.23-0.47-4.63-0.79-9.25-0.8-13.88z" fill="#9790b8" stroke="#9790b8"/>
   <path d="m3043.8 1635.9c9.87 0.57 24.49 4.44 30.17 12.01-9.37-4.23-22.84-5.3-30.17-12.01z" fill="#e3d8f5" stroke="#e3d8f5"/>
   <path d="m3040.8 1643.8c0.38-2.67-3.03-5.34-1.04-7.78 2.64 2.49-0.51 11.55 4.36 9.02-3.45 12.89-15.75 19.07-27.18 23.35-1.73 0.06-5.93-1.96-2.71-3.16 11.28-2.84 23.26-9.41 26.57-21.43z" fill="#6a0c00" stroke="#6a0c00"/>
   <path d="m3366.9 1647c4.97-7.13 16.77-7.96 24.93-11.01-2.04 4.46-17.81 11.09-24.93 11.01z" fill="#e0d8ef" stroke="#e0d8ef"/>
   <path d="m3044.1 1645c2.92-6.15 13 3.95 19.25 4.65 5.16 2.46 14.68 1.32 11.8 10.15-10.5 12.8-24.71 22.91-39.77 27.31-4.04-10.42-16.28-11.47-25.14-7.06l-0.2-0.77c-0.51-1.78-1.05-3.53-1.87-5.14-5.2-6.63 3.64-5.78 8.75-5.79 11.43-4.28 23.73-10.46 27.18-23.35z" fill="#ffa83a" stroke="#ffa83a"/>
   <path d="m2999.8 1651.7c11.59 10.92 29.64-1.11 40.92-7.91-3.31 12.02-15.29 18.59-26.57 21.43-3.22 1.2 0.98 3.22 2.71 3.16-5.11 0.01-13.95-0.84-8.75 5.79-4.53-6.83-13.45-7.67-20.16-3.99 4.24-5.98 6.61-13.24 11.85-18.48z" fill="#f78010" stroke="#f78010"/>
   <path d="m3113 1643.9c71.97 0.3 143.96-0.11 215.95 0.2-5.08 0.48-3.58 3.14-3.4 11.23-69.65-0.68-139.31-0.29-208.95-0.19-2.82-4.14-1.3-7.48 1.49-10.5-1.82-0.15-6.16 2.72-5.09-0.74z" fill="#7b70af" stroke="#7b70af"/>
   <path d="m2992.2 1655.3c1.2-2.52 7.48-9.37 7.65-3.58-5.24 5.24-7.61 12.5-11.85 18.48 6.71-3.68 15.63-2.84 20.16 3.99 0.82 1.61 1.36 3.36 1.87 5.14-2.91-4.05-5.42 13.09-1.86 9.9-4.06 9.24-7.7 18.99-10.25 28.66l-0.03 0.83c-2.48-1.35-0.98-4.63-1.64-6.77 2.28-5.86 4.67-11.75 5.84-17.95-3.96-3.5-12.6-2.39-14.9-8.44-0.51-5 3.33-9.01 4.95-13.47-8.43 4.08-13.3 12.59-14.47 21.7-8.09-4.58 10.41-21.68-1.63-15.97-0.23-1.96-1.48-3.34-3.16-4.16 10.41 1.5 16.42-9.94 19.32-18.36m3.25 16c-6.21 2.59 6.47 7.23 10.44 7.54 0.58-4.96-6.04-8.3-10.44-7.54m-2.05 6.97c-9.55 5.03 5.9 17.2 8.41 7.49 3.61-4.81-5.22-6.68-8.41-7.49z" fill="#691800" stroke="#691800"/>
   <path d="m2975.8 1651.7c7.03 1.11 3.91 9.68 2.26 14.3-2.27 4.93-7.06 3.5-10.94 1.6 0.14-1.37 0.42-4.11 0.57-5.48 5.92 15.1 13.98-14.23 2.13-5.31-0.54-5.28 9.44 0.16 5.98-5.11z" fill="#6f2200" stroke="#6f2200"/>
   <path d="m2969.8 1656.8c11.85-8.92 3.79 20.41-2.13 5.31 0.5-1.85 1.26-3.61 2.13-5.31z" fill="#faac41" stroke="#faac41"/>
   <path d="m2978 1666c4.04 4.32 7.34-11.08 14.13-10.77-2.9 8.42-8.91 19.86-19.32 18.36-3.64 0.96-9.58-2.13-5.75-5.99 3.88 1.9 8.67 3.33 10.94-1.6z" fill="#f08722" stroke="#f08722"/>
   <path d="m3110.7 1656.3c73.63-0.82 147.3-0.02 220.95-0.39 2.08 4 2.13 8.62 2.46 13.05-0.12 1.5-0.2 3.02-0.36 4.55-74.49-1.32-149.04-0.03-223.52-0.66-2.97 0.35-1.9-3.12-2.33-4.93 0.08-0.65 0.23-1.95 0.3-2.6 0.86-3.01 1.55-6.05 2.5-9.02z" fill="#f7f4ff" stroke="#f7f4ff"/>
   <path d="m3035.4 1687.1c15.06-4.4 29.27-14.51 39.77-27.31 1.01 14.39-11.02 24.37-22.11 31.23-4.93-4.4-11.56-3.69-17.66-3.92z" fill="#f37f17" stroke="#f37f17"/>
   <path d="m3102 1690.1c3.6-6.75 2.42-16.7 5.89-22.13 0.43 1.81-0.64 5.28 2.33 4.93 74.48 0.63 149.03-0.66 223.52 0.66 0.16-1.53 0.24-3.05 0.36-4.55 1.4 5.85 1.77 12.92 3.94 19.13-1.72-2.39-3.28-6.66-7.46-4.2-74.93 0.31-149.87-0.23-224.79 0.26-1.33 1.93-2.43 4-3.79 5.9m12.09-16.04c-0.13 3.06-0.6 5.67-0.03 8.9 71.6 0.16 143.21-0.01 214.83 0.08-0.02-3.05-0.15-6.72-2.23-9.03-70.86 0.04-141.72-0.05-212.57 0.05z" fill="#968fb8" stroke="#968fb8"/>
   <path d="m2995.4 1671.3c4.4-0.76 11.02 2.58 10.44 7.54-3.97-0.31-16.65-4.95-10.44-7.54z" fill="#fdb25c" stroke="#fdb25c"/>
   <path d="m2977.6 1693.8c1.17-9.11 6.04-17.62 14.47-21.7-1.62 4.46-5.46 8.47-4.95 13.47 2.3 6.05 10.94 4.94 14.9 8.44-5.24 5.97-10.47 12.88-17.87 16.14 1.32 3.17 1.66 5.06-2.16 3-3.22-4.87-10.7-13.94-4.39-19.35z" fill="#ffa938" stroke="#ffa938"/>
   <path d="m3114.1 1674c70.85-0.1 141.71-0.01 212.57-0.05 2.08 2.31 2.21 5.98 2.23 9.03-71.62-0.09-143.23 0.08-214.83-0.08-0.57-3.23-0.1-5.84 0.03-8.9z" fill="#7a6fb0" stroke="#7a6fb0"/>
   <path d="m2976 1677.8c12.04-5.71-6.46 11.39 1.63 15.97-6.31 5.41 1.17 14.48 4.39 19.35-10.8-7.32-9.85-23.9-6.02-35.32z" fill="#cd7939" stroke="#cd7939"/>
   <path d="m2993.4 1678.2c3.19 0.81 12.02 2.68 8.41 7.49-2.51 9.71-17.96-2.46-8.41-7.49z" fill="#fcb05b" stroke="#fcb05b"/>
   <path d="m3008.2 1689.2c-3.56 3.19-1.05-13.95 1.86-9.9l0.2 0.77c0.21 1.25 0.45 2.53 0.71 3.84-0.91 1.77-1.82 3.54-2.77 5.29z" fill="#1c0000" stroke="#1c0000"/>
   <path d="m3010.2 1680.1c8.86-4.41 21.1-3.36 25.14 7.06 6.1 0.23 12.73-0.48 17.66 3.92-2.32 1.92-2.93 10.93 1.43 9.23 2.41-0.7 6.55 0.82 8.05-2.09 0.15 1.48 0.44 4.43 0.59 5.91-9.17-4.72-9.87 9.02 0.07 3.68 2.1 11.4-10.64 31.18-22.24 20.36-6 2.51-17.59 5.83-19.34-2.79-1.59-0.17-3.12 0.21-4.61 0.48 10.2-5.52 10.06-17.15 13.25-26.83-3.38 3.07-6.83 5.43-11.88 2.88-10.02-1.84-7.42-12.12-2.16-17.79 5.33 1.73 10.16 4.95 15.78 5.88-0.58-10.07-14.63-13.12-21.03-6.06-0.26-1.31-0.5-2.59-0.71-3.84m6.89 8.01c-6.53 6.47 0.78 13.62 8.07 11.22 5.24-6.87-2.24-9.94-8.07-11.22m22.62 2.31c-8.69 1.15-6.73 12.42-8.38 18.65-0.08 7.23-7.52 12.04-8.14 18.64 12.29 7.45 25.07-5.89 23.63-18.27-5.91-1.21-14.57-2.14-10.28-10.61 1.11-7.79 8.81 0.92 13.24-1.06 1.64-5.47-5.39-9.6-10.07-7.35m0.46 8.73c-4.53 4.5 4.27 10.62 6.8 4.86 3.15-4.48-3.54-4.52-6.8-4.86m11.15 11.1c-1.27 6.93-4.94 12.78-8.19 18.86 12.53 6.07 28.53-21.47 8.19-18.86z" fill="#601a00" stroke="#601a00"/>
   <path d="m3010.9 1683.9c6.4-7.06 20.45-4.01 21.03 6.06-5.62-0.93-10.45-4.15-15.78-5.88-5.26 5.67-7.86 15.95 2.16 17.79 2.87 1.73 6.08 2.82 9.11 4.3-7.42 1.01-6.19 12.1-13.47 14.12-5.05 2.24-14.4 5.26-16.07-2.44 2.55-9.67 6.19-19.42 10.25-28.66 0.95-1.75 1.86-3.52 2.77-5.29z" fill="#ffa93c" stroke="#ffa93c"/>
   <path d="m3105.8 1684.2c74.92-0.49 149.86 0.05 224.79-0.26 4.18-2.46 5.74 1.81 7.46 4.2 1.83 3.69 4.23 7.08 5.99 10.82 0.43 2.37 1.6 6.22-3.87 2.99-80.8-2.79-161.8 1.01-242.6-2.07-0.12-0.39-0.36-1.18-0.48-1.57 1.09-3.04 3.05-5.62 4.92-8.21 1.36-1.9 2.46-3.97 3.79-5.9z" fill="#f7f4ff" stroke="#f7f4ff"/>
   <path d="m3456.5 1706.2c4.16-6.94 4.71-16.78 10.78-22.08 1.57 2.22-1.43 7.5-2.47 10.84-0.93 7.43-10.47 17.68-9.07 22.05-1.01 2.05-4.25 0.08-5.53-1.08 2.16-3.2 4.23-6.45 6.29-9.73z" fill="#611300" stroke="#611300"/>
   <path d="m3017.1 1688.1c5.83 1.28 13.31 4.35 8.07 11.22-7.29 2.4-14.6-4.75-8.07-11.22z" fill="#fbb462" stroke="#fbb462"/>
   <path d="m3039.7 1690.4c4.68-2.25 11.71 1.88 10.07 7.35-4.43 1.98-12.13-6.73-13.24 1.06-4.29 8.47 4.37 9.4 10.28 10.61 1.44 12.38-11.34 25.72-23.63 18.27 0.62-6.6 8.06-11.41 8.14-18.64 1.65-6.23-0.31-17.5 8.38-18.65z" fill="#fea63b" stroke="#fea63b"/>
   <path d="m3374.3 1704.3c0.95-4.24 3.08-19.3 7.78-11.52-4.96 2.39 1.51 8.29-0.07 12.16-1.95 14.21-15.26 35.11-31.12 24.56-1.91-8.08 9.3 1.75 9.93-7.55 5.21 3.47 10.93-12.64 13.48-17.65z" fill="#f18217" stroke="#f18217"/>
   <path d="m3464.8 1695c0.2 8.25 6.07-1.84 7.44-5.02-1.99 10.32-6.69 22.08-16.51 27.07-1.4-4.37 8.14-14.62 9.07-22.05z" fill="#ee8129" stroke="#ee8129"/>
   <path d="m2984.2 1710.1c7.4-3.26 12.63-10.17 17.87-16.14-1.17 6.2-3.56 12.09-5.84 17.95-2.43 4.96-11.41 6.03-14.19 1.19 3.82 2.06 3.48 0.17 2.16-3z" fill="#f48210" stroke="#f48210"/>
   <path d="m3054.4 1700.3c-1.11-4.02 6.23-5.96 8.05-2.09-1.5 2.91-5.64 1.39-8.05 2.09z" fill="#cea56d" stroke="#cea56d"/>
   <path d="m3088.9 1711.1c2.6-4.19 5.25-9.43 8.17-12.83 0.12 0.39 0.36 1.18 0.48 1.57 80.8 3.08 161.8-0.72 242.6 2.07 5.47 3.23 4.3-0.62 3.87-2.99 3.49 3.92 5.58 9.22 8.02 13.94-4.8-0.58-9.5-0.85-14.21-0.84 4.81-0.8-0.26-5.79-0.73-8.65-76.42-1.25-152.95 0.52-229.34-0.89-4.01-0.26-3.7 4.78-3.65 7.59 12.92 0.21 25.9-0.53 38.87-0.02-16 2.36-36.38 0.09-54.08 1.05z" fill="#968ebd" stroke="#968ebd"/>
   <path d="m3440.2 1714.2c2.78-5.02 1.21-14.83 7.93-16.1-0.07 3.95-1.86 7.47-3.23 11.08-1.12 3.56-2.06 7.43-1.2 11.17-1.18 2.47-2.12-3.23-3.49-4.54 0-0.4-0.01-1.21-0.01-1.61z" fill="#712300" stroke="#712300"/>
   <path d="m3018.3 1701.9c5.05 2.55 8.5 0.19 11.88-2.88-3.19 9.68-3.05 21.31-13.25 26.83-5.92 7.42-18.35 1.24-19.09-7.14l0.03-0.83c1.67 7.7 11.02 4.68 16.07 2.44 7.28-2.02 6.05-13.11 13.47-14.12-3.03-1.48-6.24-2.57-9.11-4.3z" fill="#f28115" stroke="#f28115"/>
   <path d="m3040.2 1699.1c3.26 0.34 9.95 0.38 6.8 4.86-2.53 5.76-11.33-0.36-6.8-4.86z" fill="#fcb165" stroke="#fcb165"/>
   <path d="m3359.4 1699.9c-1.77 7.99 6.4 14.86 1.38 22.04-0.63 9.3-11.84-0.53-9.93 7.55-4.82-3.3 4.33-11.98 8.21-6.63-0.26-7.2-1.61-15.25 0.34-22.96z" fill="#4a0500" stroke="#4a0500"/>
   <path d="m3107.8 1702.5c76.39 1.41 152.92-0.36 229.34 0.89 0.47 2.86 5.54 7.85 0.73 8.65-82.92-0.7-166.28 1.19-248.93-0.92 17.7-0.96 38.08 1.31 54.08-1.05-12.97-0.51-25.95 0.23-38.87 0.02-0.05-2.81-0.36-7.85 3.65-7.59z" fill="#7a6fb2" stroke="#7a6fb2"/>
   <path d="m3063.2 1707.8c-9.94 5.34-9.24-8.4-0.07-3.68 0.09 1.2 0.11 2.43 0.07 3.68z" fill="#f8b571" stroke="#f8b571"/>
   <path d="m3444.9 1709.2c0.93 7.03 6.7-4.63 11.6-2.94-2.06 3.28-4.13 6.53-6.29 9.73-1.81 1.92-4.36 2.94-6.51 4.38-0.86-3.74 0.08-7.61 1.2-11.17z" fill="#eb8224" stroke="#eb8224"/>
   <path d="m3051.3 1710.2c20.34-2.61 4.34 24.93-8.19 18.86 3.25-6.08 6.92-11.93 8.19-18.86z" fill="#fda53d" stroke="#fda53d"/>
   <path d="m3420.4 1727.3c2.46-4.98-3.52-17.3 3.58-17.18 5.92 8.58-8.61 26.02 2.94 30.02-3.32 3.48-6.52 6.3-10.86 6.36 0.32-7.73-14.37-0.3-8.92 5.16-0.76 0.79-0.87 1.69-0.33 2.68-9.46-1.18-2.18-13.26 4.02-13.54 8.6 1.28 9.2-7.36 9.57-13.5z" fill="#570900" stroke="#570900"/>
   <path d="m3424 1710.1c3.21 3.43-0.37 12.48 0.83 17.66 6.98-1.85 13.89-5.77 15.35-13.54 0 0.4 0.01 1.21 0.01 1.61-0.91 9.38-6.67 17.77-13.25 24.29-11.55-4 2.98-21.44-2.94-30.02z" fill="#f17e16" stroke="#f17e16"/>
   <path d="m3091 1716.2c-7.48 4.99-4.96-5.59-2.05-5.06 82.65 2.11 166.01 0.22 248.93 0.92 4.71-0.01 9.41 0.26 14.21 0.84 2.73 0.13 2.16 3.24 1.77 5.13-87.66 0.32-175.32 0.03-262.86-1.83z" fill="#f0ecff" stroke="#f0ecff"/>
   <path d="m3100 1726.2c-0.09-12.15 16.54-4.03 23.85-6.59 4.62 6.13-11.3-0.46-7.29 6.05 6.18-0.35 15.22 1.29 19.54-4.64 12.29-2.39 25.35-0.76 37.93-0.8l-0.52 0.84c-14.75 0.42-30.46-3.35-43.56 5.09-6.54 5.63-26.02-3.35-9.24-4.36-4.17-2.04-12.47-1.26-18.3-0.37-0.78 18.75-9.28 35.86-10.73 54.46-1.39 8.52-1.32 19.81 7.23 24.53 6.72 7.56-8.93 16.75-11.66 7.85-3.63-4.93 4.75-10.46 1.58-14.03-16.35 3.86 0.85 30.2 10.59 28.8-5.51-7.97 2.97-10.17 8.45-14.07-5.21-2.29-7.46-7.6-3.88-12.85-7.61-6.63-3.65-17.28 4.99-20.35 6.22 3.14 14.92 0.3 19.79 5.54 1.39 7.78-11.83 5.95-7.38 14.88-6.77 0.59-5.15 7.87-10.34 10.2-1.74 5.87 11.56 5.16 9.07-0.94 0.26-7.72 12.51-10.65 15.91-3.42 2.11 4.83-5.13 15.55 3.94 15.92l0.64 0.45c-0.03 5.94-2.82 12.3-2.3 16.82-21.65-1.27-43.41-4.45-64.24-10.56-7.69-35.91 26.07-63.09 25.93-98.45m-15.9 57.74c-1.6 2.73-3.42 7.16-1.05 9.91 5.86 0.44 5.7-8.98 1.05-9.91m42.12 35.08c-3.64 6.64 11.43 7.63 9.82 1.12-2.43-2.66-7.01-0.47-9.82-1.12z" fill="#3d669f" stroke="#3d669f"/>
   <path d="m3123.9 1719.7c3.97 0.43 8.19 0.96 12.25 1.41-4.32 5.93-13.36 4.29-19.54 4.64-4.01-6.51 11.91 0.08 7.29-6.05z" fill="#001b3a" stroke="#001b3a"/>
   <path d="m3174.1 1720.3c44.68 0.47 93.18 0.18 135.4 1.62-0.46 0.01-1.38 0.02-1.84 0.02-23.22 0.8-46.6-1.17-69.7 0.83 2.51 9.77 5.65 21.21-0.45 30.22-4.07 7.83 4.67 8.45 9.65 6.98-12.9 9.48-35.15 8.86-48.52 0.22 7.65 2.79 14.41-0.09 12.01-9.55-1.45-8.51 8.93-23.8 1.34-28.85-12.82-0.32-25.74 1.44-38.41-0.65l0.52-0.84z" fill="#3a5d8e" stroke="#3a5d8e"/>
   <path d="m3312.8 1723c10.05 2.99 19.36-6.78 28.96-2.16-10.79-1.44-17.94 10.73-28.96 2.16z" fill="#123360" stroke="#123360"/>
   <path d="m3102.5 1721.5c5.83-0.89 14.13-1.67 18.3 0.37-16.78 1.01 2.7 9.99 9.24 4.36 13.1-8.44 28.81-4.67 43.56-5.09 12.67 2.09 25.59 0.33 38.41 0.65 2.04 12.32-3.93 24.34-3.19 36.79-6.56 2.88-13.54-0.87-19.93-2.44 10.45 11.32 9.72 34.37-3.44 42.69-7.07-3.54 9.94-14.44-3.1-14.63 0.11 6.81-12.91 12.12-5.03 18.28 0.01 8.7 11.68-4 14.46-1.7-6.11 11.32-20.81 14.62-30.48 22.6-3.6 1.05-8.61 5.86-9.86 0.2-1.69-6.49-11.41 4.11-10.74-5.11l-0.64-0.45c-5.03-3.61 1.1-4.72 4.03-1.88 7.8 5.46 24.62-1.01 15.86-11.15-8.4 1.79-14.08-11.47-3.51-10.53 1.46 7.02 13.54 9.2 11.46-0.03-1.29-8.23 1.5-17.38-11.17-16.71 1.23-7.89-6.63-12.59-13.69-11.26-10.64-6.48-13.69 7.39-10.16 14.32-4.46-0.7-10.04-4.57-5.7-8.7 3.4-6.16-5.82-7.15-8.98-3.44-1.85-2.83-6.94-5.39-8.42-0.83-2.27 2.79 3.81 6.87-0.71 8.03-4.27 1.18-8.68 1.98-12.98 0.36 3.4 7.2 1.66 14.99 5.71 21.9-10.92-0.36-8-14.73-10.03-22.14 1.45-18.6 9.95-35.71 10.73-54.46m7.58 14.74c-2.24 16 14.44-3.7 0 0m39.46 6.15c-7.84 4.69-16.38 7.49-25.32 8.84 4.23 13.63 31.05-3.5 25.32-8.84m15.72 14.92c-4.81 0.31-8.93 8.83-2.79 10.47 6.88 2.76 11.11-11.33 2.79-10.47m-37.91 0.76c-8.25 10.22 13.37 2.69 0 0m-21.78 1.94c-3.38 1.85-8.68 9.65-3.75 11.92 3.1-2.54 13.79-11.39 3.75-11.92m65.97 8.09c-5.38 1.89-0.96 10.96 4.18 7.81 3.46-2.43 1.34-10.96-4.18-7.81z" fill="#64abff" stroke="#64abff"/>
   <path d="m3312.8 1723c11.02 8.57 18.17-3.6 28.96-2.16 6.82 1.39 3.21 12.47 6.02 17.35 1.54 15.41 10.67 28.13 16.74 41.68 0.52 7.98 2.69 15.97 6.16 23.21-4.63 10.42-13.15 20.34-23.83 25.18-7.07 1.52-22.22-7.12-22.83 4.52-7.61 0.35-13.89-5.36-15.14 2.1-1.16-5.33-4.79-12.46-1.7-16.92 9.41-4.67-2.48-14.1 4.91-19.96-4.38-9.6-5.51 2.54-11.01 4.19 0.08 4.22 8.03 4.57 4.88 10.35-4.55 6.37-14.66 5.87-21.14 2.54-3.64-8.67 5.15-12.36 11.42-14.67 3.44-6.34-10.43-9.49-8.81-2.16-2.19 6.09-13.88 1.38-8.69-5.24 6.51-3.59-3.11-13.47 6.1-13.4 12.12 2.94 1.21-9.36 10.35-11.84 6.57-1.83 26.67 3.83 16.83 11.19 1.73 4.2 7 9.5 0.31 12.3 2.14 8.87 16.4 7.76 15.81 18.65 11.91 2.95 3.08-7.28 1.27-11.32-5.12-0.61-5.79-4.84-4.91-9.12-4.07-0.76-8.3-4.48-6.97-8.86 9.04-7.34 21.03-2.03 30.64-2.46 1.59 5.14-10.2 18.31-1.22 23.03 4.64-2.6 7.17-7.92 7.12-13.16 3.43-22.59-8.58-43.5-10.72-65.61-4.39-0.57-10.13-1.78-11.33 3.56-7.8 4.31-17.38 0.16-24.36-4.08 0.46 0 1.38-0.01 1.84-0.02 1.18-0.03 2.28 0.35 3.3 1.13m47.16 61.15c-0.14 3.44-1.28 10.2 4 8.72 0.52-3.17 0.56-9.73-4-8.72m-2.73 10.94c0.62 4.5 4.21 9.2 3.71 13.62 5.25-2.98 4.43-14.06-3.71-13.62m-12.39 9.26c-11.5 3.2-0.98 9.4 4.79 10.05 1.58 3.47-3.9 5.67-2.33 9.45 6.29 0.25 11.01-7.25 12.58-12.75-7.55 3.48-13.53-2.41-15.04-6.75m-27.51 13.99c-3.23 0.02-9.73 3.61-3.9 5.37 6.28 4.15 10.12-5.63 3.9-5.37z" fill="#3c67a3" stroke="#3c67a3"/>
   <path d="m3212 1721.8c7.59 5.05-2.79 20.34-1.34 28.85 2.4 9.46-4.36 12.34-12.01 9.55-3.43-1.35-2.27 1.85-1.95 4.01-0.91 16.25 3.38 39.58-14.48 48.06-6.97 4.02-13.56 8.83-21.03 11.85l0.1-0.73c9.67-7.98 24.37-11.28 30.48-22.6-2.78-2.3-14.45 10.4-14.46 1.7-7.88-6.16 5.14-11.47 5.03-18.28 13.04 0.19-3.97 11.09 3.1 14.63 13.16-8.32 13.89-31.37 3.44-42.69 6.39 1.57 13.37 5.32 19.93 2.44-0.74-12.45 5.23-24.47 3.19-36.79z" fill="#396fba" stroke="#396fba"/>
   <path d="m3237.9 1722.7c23.1-2 46.48-0.03 69.7-0.83 6.98 4.24 16.56 8.39 24.36 4.08 1.2-5.34 6.94-4.13 11.33-3.56 2.14 22.11 14.15 43.02 10.72 65.61-0.76 4.13-6.09 13.29-9.87 8.26 6.3-4.6 4.99-14.73 4.7-20.09-5.52 3.89-16.79-2.37-9.21-7.25 5.78 8.98 12.38-2.6 4.46-7.16-1.43-3.71-3.09-12.16-7.65-7.51 1.93 7.16-4.64 12.18-11.39 11.39-6.73-4.5-5.98 8.18-10.3 5.55-1.64-11.62-12.94-4.11-19.62-3.44-9.14 2.48 1.77 14.78-10.35 11.84-9.21-0.07 0.41 9.81-6.1 13.4-5.19 6.62 6.5 11.33 8.69 5.24-1.62-7.33 12.25-4.18 8.81 2.16-6.27 2.31-15.06 6-11.42 14.67 6.48 3.33 16.59 3.83 21.14-2.54 3.15-5.78-4.8-6.13-4.88-10.35 5.5-1.65 6.63-13.79 11.01-4.19-7.39 5.86 4.5 15.29-4.91 19.96-3.48 6.07-12.77 0.14-13.75 8.29-7.92-1.34-14.57-8.63-22.49-11.21-6.56-3.2-12.34-7.73-17.19-13.13 4.27-5.61 14.19 9.73 17.11-1.4 5.31-6.46-6.77-6.93-4.26-13.15-1.49-8.03-13.86 0.75-6.03 4.05 5.78 0.23 2.26 10.31-2.07 6.21-11.21-4.61-4.7-19.46-7.73-28.45-2.32-6.11 6.23-7.77 7.14-13.14-3.67 0.92-8.17 0.79-10.75 3.89-4.98 1.47-13.72 0.85-9.65-6.98 6.1-9.01 2.96-20.45 0.45-30.22m94.54 13.49c-5.48 1.24 0.48 8.51 3.81 5.07 2.39-2.5-0.56-6.94-3.81-5.07m-39.48 3.98c3.64 9.52 16.25 20.64 27.07 13.79 4.08-0.23 1.76-5.14-1.07-4.01-10.26 1.28-17.37-6.66-26-9.78m-15.38 18c-5.41 4.48 5.24 14.69 8.63 8.03 4.41-4.45-4.13-10.81-8.63-8.03m38.54-0.19c-5.6 11.48 12.74 1.62 0 0m-44.77 10.12c-3.83 2.52-1.76 9.53 3.16 7.69 4.98-1.97 1.7-9.69-3.16-7.69z" fill="#64abff" stroke="#64abff"/>
   <path d="m3390.8 1747.2c9.6-6.84 26.18-5.75 29.61-19.91-0.37 6.14-0.97 14.78-9.57 13.5-6.2 0.28-13.48 12.36-4.02 13.54 0.46 4.82-19.32 2.41-16.02-7.13z" fill="#f17f19" stroke="#f17f19"/>
   <path d="m3110 1736.2c14.44-3.7-2.24 16 0 0z" fill="#3264b9" stroke="#3264b9"/>
   <path d="m3332.5 1736.2c3.25-1.87 6.2 2.57 3.81 5.07-3.33 3.44-9.29-3.83-3.81-5.07z" fill="#2f6fbe" stroke="#2f6fbe"/>
   <path d="m3293 1740.2c8.63 3.12 15.74 11.06 26 9.78 2.83-1.13 5.15 3.78 1.07 4.01-10.82 6.85-23.43-4.27-27.07-13.79z" fill="#2c5ba2" stroke="#2c5ba2"/>
   <path d="m3149.5 1742.4c5.73 5.34-21.09 22.47-25.32 8.84 8.94-1.35 17.48-4.15 25.32-8.84z" fill="#2c5c95" stroke="#2c5c95"/>
   <path d="m3407.2 1751.6c-5.45-5.46 9.24-12.89 8.92-5.16-1.01 3.6-5.19 6.71-8.92 5.16z" fill="#e48531" stroke="#e48531"/>
   <path d="m3336.5 1754.3c4.56-4.65 6.22 3.8 7.65 7.51-7.07-6.82-13.56 13.86-19.04 3.88 6.75 0.79 13.32-4.23 11.39-11.39z" fill="#447fd1" stroke="#447fd1"/>
   <path d="m3247.1 1759.9c2.58-3.1 7.08-2.97 10.75-3.89-0.91 5.37-9.46 7.03-7.14 13.14 3.03 8.99-3.48 23.84 7.73 28.45 4.33 4.1 7.85-5.98 2.07-6.21-7.83-3.3 4.54-12.08 6.03-4.05-2.51 6.22 9.57 6.69 4.26 13.15-2.92 11.13-12.84-4.21-17.11 1.4-0.67-8.2-6.25-24.51-4.59-37.65 2.59-2.15 1.37-5.1-2-4.34z" fill="#386fb8" stroke="#386fb8"/>
   <path d="m3165.2 1757.3c8.32-0.86 4.09 13.23-2.79 10.47-6.14-1.64-2.02-10.16 2.79-10.47z" fill="#3469a9" stroke="#3469a9"/>
   <path d="m3127.3 1758c13.37 2.69-8.25 10.22 0 0z" fill="#2f6fc3" stroke="#2f6fc3"/>
   <path d="m3277.6 1758.2c4.5-2.78 13.04 3.58 8.63 8.03-3.39 6.66-14.04-3.55-8.63-8.03z" fill="#3568b6" stroke="#3568b6"/>
   <path d="m3316.2 1758c12.74 1.62-5.6 11.48 0 0z" fill="#2e6dc0" stroke="#2e6dc0"/>
   <path d="m3105.5 1760c10.04 0.53-0.65 9.38-3.75 11.92-4.93-2.27 0.37-10.07 3.75-11.92z" fill="#336fc1" stroke="#336fc1"/>
   <path d="m3196.7 1764.2c-0.32-2.16-1.48-5.36 1.95-4.01 13.37 8.64 35.62 9.26 48.52-0.22 3.37-0.76 4.59 2.19 2 4.34-3.88 3.98-12.54 3.49-13.23 9.63 0.34-9.64-18.29-10.31-25.47-3.79-5.27-0.23-9.24-3.81-13.77-5.95z" fill="#000627" stroke="#000627"/>
   <path d="m3325.1 1765.7c5.48 9.98 11.97-10.7 19.04-3.88 2.46 4.15 2.56 14.98-2.06 6.94-6.62-7.08-3.97 6.93-9.78 4.78-4.32-1.8-9.97 5.53-12.31-0.64-2.84-4.21 1.13-6.92 5.11-7.2z" fill="#3668ac" stroke="#3668ac"/>
   <path d="m3344.1 1761.8c7.92 4.56 1.32 16.14-4.46 7.16-7.58 4.88 3.69 11.14 9.21 7.25 0.29 5.36 1.6 15.49-4.7 20.09 3.78 5.03 9.11-4.13 9.87-8.26 0.05 5.24-2.48 10.56-7.12 13.16-8.98-4.72 2.81-17.89 1.22-23.03-9.61 0.43-21.6-4.88-30.64 2.46-1.33 4.38 2.9 8.1 6.97 8.86-0.88 4.28-0.21 8.51 4.91 9.12 1.81 4.04 10.64 14.27-1.27 11.32 0.59-10.89-13.67-9.78-15.81-18.65 6.69-2.8 1.42-8.1-0.31-12.3 9.84-7.36-10.26-13.02-16.83-11.19 6.68-0.67 17.98-8.18 19.62 3.44 4.32 2.63 3.57-10.05 10.3-5.55-3.98 0.28-7.95 2.99-5.11 7.2 2.34 6.17 7.99-1.16 12.31 0.64 5.81 2.15 3.16-11.86 9.78-4.78 4.62 8.04 4.52-2.79 2.06-6.94z" fill="#679ae5" stroke="#679ae5"/>
   <path d="m3132.8 1780.8c-3.53-6.93-0.48-20.8 10.16-14.32 7.06-1.33 14.92 3.37 13.69 11.26 12.67-0.67 9.88 8.48 11.17 16.71-3.18-2.89-6.65-5.74-2.3-9 3.55-9.2-16.7-1.03-11.42-10.26 4.05-13.03-29.81-6.68-19.25 3.94-5.95 5.88-2.65 12.57 4.95 15.02-4.67 0.49-6.82 4.09-3.76 7.97-3.4-7.23-15.65-4.3-15.91 3.42 2.49 6.1-10.81 6.81-9.07 0.94 5.19-2.33 3.57-9.61 10.34-10.2-4.45-8.93 8.77-7.1 7.38-14.88-4.87-5.24-13.57-2.4-19.79-5.54 4.52-1.16-1.56-5.24 0.71-8.03 1.48-4.56 6.57-2 8.42 0.83 3.16-3.71 12.38-2.72 8.98 3.44-4.34 4.13 1.24 8 5.7 8.7m-5.73 7.73c-5.2 0.29-3.18 5.15-3.57 8.68 6.72 1.88 13.03-8.64 3.57-8.68z" fill="#5187d0" stroke="#5187d0"/>
   <path d="m3196.7 1764.2c4.53 2.14 8.5 5.72 13.77 5.95 0.38 4.54 0 9.17 1.39 13.62-15.85 12.18-16.64 34.64-27.54 50.39-13.89-0.25-27.73 1.72-41.6 0.78 6.04-3.78 12.41-7.05 18.47-10.83 7.47-3.02 14.06-7.83 21.03-11.85 17.86-8.48 13.57-31.81 14.48-48.06z" fill="#3f5c8c" stroke="#3f5c8c"/>
   <path d="m3235.9 1773.9c0.69-6.14 9.35-5.65 13.23-9.63-1.66 13.14 3.92 29.45 4.59 37.65 4.85 5.4 10.63 9.93 17.19 13.13 10.63 7.42 21.6 14.88 33.59 19.99-14.42 0.07-28.77 0.16-43.1-1.16-9.68-16.22-11.16-38.49-27.3-50.05 0.72-3.27 1.86-6.54 1.8-9.93z" fill="#3d5c8c" stroke="#3d5c8c"/>
   <path d="m3134.9 1779.1c-10.56-10.62 23.3-16.97 19.25-3.94-5.28 9.23 14.97 1.06 11.42 10.26-4.35 3.26-0.88 6.11 2.3 9 2.08 9.23-10 7.05-11.46 0.03-10.57-0.94-4.89 12.32 3.51 10.53 8.76 10.14-8.06 16.61-15.86 11.15-2.58-2.69-4.87-8.52-0.34-10.37 5.68-3.51-3.75-7.13-3.87-11.64-7.6-2.45-10.9-9.14-4.95-15.02z" fill="#3c66a4" stroke="#3c66a4"/>
   <path d="m3171.5 1768.1c5.52-3.15 7.64 5.38 4.18 7.81-5.14 3.15-9.56-5.92-4.18-7.81z" fill="#3568b9" stroke="#3568b9"/>
   <path d="m3271.4 1768.1c4.86-2 8.14 5.72 3.16 7.69-4.92 1.84-6.99-5.17-3.16-7.69z" fill="#2e68ba" stroke="#2e68ba"/>
   <path d="m3099 1800.5c-8.55-4.72-8.62-16.01-7.23-24.53 2.03 7.41-0.89 21.78 10.03 22.14-4.05-6.91-2.31-14.7-5.71-21.9 4.3 1.62 8.71 0.82 12.98-0.36-8.64 3.07-12.6 13.72-4.99 20.35-3.58 5.25-1.33 10.56 3.88 12.85-5.48 3.9-13.96 6.1-8.45 14.07-9.74 1.4-26.94-24.94-10.59-28.8 3.17 3.57-5.21 9.1-1.58 14.03 2.73 8.9 18.38-0.29 11.66-7.85z" fill="#6393e0" stroke="#6393e0"/>
   <path d="m3370.7 1803.1c-3.47-7.24-5.64-15.23-6.16-23.21 8.15 12.71 10.05 30.79 7.4 45-21.24 5.99-47.54 9.72-67.39 10.16 1.4-0.05 2.86-0.07 4.35-0.15 1.25-7.46 7.53-1.75 15.14-2.1 0.61-11.64 15.76-3 22.83-4.52 10.68-4.84 19.2-14.76 23.83-25.18z" fill="#44618f" stroke="#44618f"/>
   <path d="m3084.2 1784c4.65 0.93 4.81 10.35-1.05 9.91-2.37-2.75-0.55-7.18 1.05-9.91z" fill="#6898e0" stroke="#6898e0"/>
   <path d="m3359.9 1784.2c4.56-1.01 4.52 5.55 4 8.72-5.28 1.48-4.14-5.28-4-8.72z" fill="#709fec" stroke="#709fec"/>
   <path d="m3127.1 1788.5c9.46 0.04 3.15 10.56-3.57 8.68 0.39-3.53-1.63-8.39 3.57-8.68z" fill="#6fa6f9" stroke="#6fa6f9"/>
   <path d="m3136.1 1802.1c-3.06-3.88-0.91-7.48 3.76-7.97 0.12 4.51 9.55 8.13 3.87 11.64-4.53 1.85-2.24 7.68 0.34 10.37-2.93-2.84-9.06-1.73-4.03 1.88-9.07-0.37-1.83-11.09-3.94-15.92z" fill="#6aa3f3" stroke="#6aa3f3"/>
   <path d="m3357.2 1795.1c8.14-0.44 8.96 10.64 3.71 13.62 0.5-4.42-3.09-9.12-3.71-13.62z" fill="#6ca2ea" stroke="#6ca2ea"/>
   <path d="m3344.8 1804.4c1.51 4.34 7.49 10.23 15.04 6.75-1.57 5.5-6.29 13-12.58 12.75-1.57-3.78 3.91-5.98 2.33-9.45-5.77-0.65-16.29-6.85-4.79-10.05z" fill="#6c98e9" stroke="#6c98e9"/>
   <path d="m3270.9 1815.1c7.92 2.58 14.57 9.87 22.49 11.21 0.98-8.15 10.27-2.22 13.75-8.29-3.09 4.46 0.54 11.59 1.7 16.92-1.49 0.08-2.95 0.1-4.35 0.15-11.99-5.11-22.96-12.57-33.59-19.99z" fill="#4b79c1" stroke="#4b79c1"/>
   <path d="m3140.7 1818.4c-0.67 9.22 9.05-1.38 10.74 5.11 1.25 5.66 6.26 0.85 9.86-0.2l-0.1 0.73c-6.06 3.78-12.43 7.05-18.47 10.83-1.47 0.24-2.92 0.33-4.33 0.35-0.52-4.52 2.27-10.88 2.3-16.82m5.74 3.71c-10.75 9.53 13.54 3.09 0 0z" fill="#6c9ce4" stroke="#6c9ce4"/>
   <path d="m3317.3 1818.4c6.22-0.26 2.38 9.52-3.9 5.37-5.83-1.76 0.67-5.35 3.9-5.37z" fill="#669be3" stroke="#669be3"/>
   <path d="m3126.3 1819.1c2.81 0.65 7.39-1.54 9.82 1.12 1.61 6.51-13.46 5.52-9.82-1.12z" fill="#6c93e6" stroke="#6c93e6"/>
   <path d="m3146.4 1822.2c13.54 3.09-10.75 9.53 0 0z" fill="#3567b8" stroke="#3567b8"/>
   <path d="m3060.7 1833.8c2.87-7.3 21.41-6.39 18.75-1.54 14.65 0.24 28.7 4.91 43.27 6.04 12.06 3.01 26.28 0.48 37.09 2.44-26.02 16.67-61.89 33.68-93.05 17.52-1.57-3.96 6.07-6.85 7.69-10.88 6.38-8.95-14.41-6.83-13.75-13.58z" fill="#ffa739" stroke="#ffa739"/>
   <path d="m3323.5 1838.3c18-0.43 35.37-6.63 53.22-9.24 2.51 2.02 6.95 3 8.14 5.93-3.65 4.72-13.89 3.04-15.67 9.91 2.77 4.47 7.11 7.67 10.88 11.34-28.49 19.65-70.98 1.57-94.76-16.42 12.66-0.59 25.74 2 38.19-1.52z" fill="#ffa73a" stroke="#ffa73a"/>
   <path d="m3028 1835.7c4.96-9.55 20.74 0.56 29.76 3.51 2.2 1.9 16 3.65 10.22 7.75-12.25-5-25.52-12.42-39.01-9.78-0.24-0.37-0.73-1.11-0.97-1.48z" fill="#d4973f" stroke="#d4973f"/>
   <path d="m3391.8 1837.9c6.49-3.78 22.89-9.44 24.93-2.1-12.1-0.08-23.57 4.44-34.86 8.26 2.11-3.61 6.83-3.73 9.93-6.16z" fill="#db9b43" stroke="#db9b43"/>
   <path d="m3028 1835.7c0.24 0.37 0.73 1.11 0.97 1.48 0.51 14.66 21.95 10.03 31.58 17.75-1.39 1.67-3.32 2.53-0.66 5.13l-0.76 0.08c-8.25-4.21-18.31-12.96-27.47-8.59-1.52-2.07-3.68-11.1-3.66-15.85z" fill="#430800" stroke="#430800"/>
   <path d="m3029 1837.2c13.49-2.64 26.76 4.78 39.01 9.78-2.05 3-4.56 5.74-7.43 7.97-9.63-7.72-31.07-3.09-31.58-17.75z" fill="#bc720a" stroke="#bc720a"/>
   <path d="m3381.9 1844c11.29-3.82 22.76-8.34 34.86-8.26-0.32 3.36-1.03 6.79-2.49 9.84-11.64-2.18-20.21 10.4-31.02 8.29-3.2-2.93-7.02-5.29-9.3-8.93 5.15-3.48 11.68-5.83 17.88-7.1-3.1 2.43-7.82 2.55-9.93 6.16z" fill="#be7110" stroke="#be7110"/>
   <path d="m3122.7 1838.2c14.3 1.72 29.7-2.01 43.31 2.92-15.37 9.02-31.14 17.78-48.03 23.67-17.39 5.92-36.13 3.08-53.02-2.99-2.06-0.45-4-1.01-5.8-1.67l0.76-0.08c6.71-1.13 7.42-11.2 14.51-12.77-1.62 4.03-9.26 6.92-7.69 10.88 31.16 16.16 67.03-0.85 93.05-17.52-10.81-1.96-25.03 0.57-37.09-2.44z" fill="#611300" stroke="#611300"/>
   <path d="m3276.8 1840.1c14.87-0.32 31.08-2.17 46.74-1.86-12.45 3.52-25.53 0.93-38.19 1.52 23.78 17.99 66.27 36.07 94.76 16.42 1.44 1.69 1.77 4.41 4.89 3.91-1.25 0.43-3.74 1.3-4.99 1.73-14.4 4.54-29.95 8.42-45.01 5.03-21.21-4.39-39.35-16.84-58.2-26.75z" fill="#651500" stroke="#651500"/>
   <path d="m3166 1841.2c10.89-8.64 7.17 8.11 8.73 14.11 13.36-0.25 2.99 6.12-2.61 9.01-3.56 9.36-14.66 11.39-23.58 13.24-23 4.51-48.33 4.24-70.29 1.48 26.72-5.27 60.95 1.71 87.04-12.71 9.16-2.78 5.64-24.09-4.74-17.9-14.6 8.96-29.71 18.72-46.92 21.33 3.39-1.93 16.42-5.32 4.34-4.89 16.89-5.89 32.66-14.65 48.03-23.67z" fill="#d68314" stroke="#d68314"/>
   <path d="m3268.8 1855.8c3.42-3.84-3.62-22.5 7.97-15.7 18.85 9.91 36.99 22.36 58.2 26.75-6.37-0.98-7.04 0.48-2.88 3.22-19.38-3.32-35.83-15.48-53.03-24-6.73 3.91-6.96 17.43 1.05 20.81 27.24 14.79 62.91 6.26 89.87 11.86-28.87 1.13-61.44 5.41-89.65-6.04-4.53-1.08-4.26-6.92-8.17-8.72-4.25-2.62-15.84-8.96-3.36-8.18z" fill="#da8818" stroke="#da8818"/>
   <path d="m3280.1 1866.9c-8.01-3.38-7.78-16.9-1.05-20.81 17.2 8.52 33.65 20.68 53.03 24 17.37 3.07 35.72 1.79 52.14-5 2.1-3.11-2.13-3.5-4.25-3.25 1.25-0.43 3.74-1.3 4.99-1.73 8.59-3.68 18.99-11.35 27.75-9.52-6.06 2.49-5.79 9.33 3.61 7.61-0.39 0.16-1.18 0.49-1.57 0.65-6.35 2.94-13.17 4.63-19.5 7.52 0.88 12.01 14.8 13.44 23.14 18.64-35.9 0.27-71.69 3.61-107.62 2.17-13.79-4.48-34.87 2.8-44.92-7.33-0.64-7.67 1.06-12.46 6.3-15.85 3.91 1.8 3.64 7.64 8.17 8.72 28.21 11.45 60.78 7.17 89.65 6.04-26.96-5.6-62.63 2.93-89.87-11.86z" fill="#c17108" stroke="#c17108"/>
   <path d="m3383.2 1853.9c10.81 2.11 19.38-10.47 31.02-8.29 0.98 3.96 0.28 7.55-4.1 8.61 1.33 6.27 14.68-1.16 16.1 3.78-3.51-0.08-6.56 0.05-9.91 0.2-9.4 1.72-9.67-5.12-3.61-7.61-8.76-1.83-19.16 5.84-27.75 9.52 5.05-4.51 2.27-2.94-1.75-6.21z" fill="#430800" stroke="#430800"/>
   <path d="m3160.5 1848.4c10.38-6.19 13.9 15.12 4.74 17.9-26.09 14.42-60.32 7.44-87.04 12.71 21.96 2.76 47.29 3.03 70.29-1.48 8.92-1.85 20.02-3.88 23.58-13.24-1.37 4.56 3.01 3.28 5.91 2.86 0.2 5.25 0.57 10.57 0.97 15.87-17.41 1.3-34.82 2.65-52.12 4.79-1.91 0.1-3.79 0.23-5.64 0.34-12.57-0.16-25.11-0.27-37.63-0.04-4.59-0.2-8.96-0.15-13.41-0.29-21.25-3.86-43.23 1.24-64.15-3.97l-0.17-0.87c15.52 4.6 34.14 1.61 43.58-12.72 2.44-9.51-12.61-7.29-18.31-11.23-3.6-0.67-7.17-0.92-10.74-1.03 2.88-1.07 23.87-0.11 11.27-6.41 9.16-4.37 19.22 4.38 27.47 8.59 1.8 0.66 3.74 1.22 5.8 1.67-3.55-1.31-7.57 3.01-2.01 4.24 16.01 4.79 34.04 7.39 50.69 3.64 17.21-2.61 32.32-12.37 46.92-21.33z" fill="#c0710a" stroke="#c0710a"/>
   <path d="m2994.3 1872.4c3.7-10.18 17.57-10.29 26.11-14.4 3.57 0.11 7.14 0.36 10.74 1.03-12.77 3.57-25.37 8.58-36.66 14.82-0.05-0.36-0.14-1.09-0.19-1.45z" fill="#e9a245" stroke="#e9a245"/>
   <path d="m3416.3 1858.2c3.35-0.15 6.4-0.28 9.91-0.2 7.91 3.69 18.1 4.77 23.55 12.43 0.36 1.48 0.71 3 1.12 4.53-10.26-8.5-23.75-11.95-36.15-16.11 0.39-0.16 1.18-0.49 1.57-0.65z" fill="#eaa53b" stroke="#eaa53b"/>
   <path d="m3031.1 1859c5.7 3.94 20.75 1.72 18.31 11.23-9.44 14.33-28.06 17.32-43.58 12.72-8.1-0.95-16.26 0.2-11.39-9.13 11.29-6.24 23.89-11.25 36.66-14.82z" fill="#ea8b08" stroke="#ea8b08"/>
   <path d="m3395.3 1866.4c6.33-2.89 13.15-4.58 19.5-7.52 12.4 4.16 25.89 7.61 36.15 16.11 0.72 2.21 1.84 4.25 2.98 6.31-11.92 0.56-23.54 4.34-35.49 3.74-8.34-5.2-22.26-6.63-23.14-18.64z" fill="#ea8b09" stroke="#ea8b09"/>
   <path d="m3062.9 1866.1c-5.56-1.23-1.54-5.55 2.01-4.24 16.89 6.07 35.63 8.91 53.02 2.99 12.08-0.43-0.95 2.96-4.34 4.89-16.65 3.75-34.68 1.15-50.69-3.64z" fill="#e89c31" stroke="#e89c31"/>
   <path d="m3335 1866.9c15.06 3.39 30.61-0.49 45.01-5.03 2.12-0.25 6.35 0.14 4.25 3.25-16.42 6.79-34.77 8.07-52.14 5-4.16-2.74-3.49-4.2 2.88-3.22z" fill="#ee9e37" stroke="#ee9e37"/>
   <path d="m2986.2 1870.8c5.05-3.63 1.41 6.96 8.11 1.58 0.05 0.36 0.14 1.09 0.19 1.45-4.87 9.33 3.29 8.18 11.39 9.13l0.17 0.87c-6.12-0.45-12.15-1.22-18.15-2.17-4.24-0.55-34.1 3.19-19.98-2.95-1.33 6.21 15.86 1.38 18.28 2.02-4.87-4.08 4.85-8.06-0.01-9.93z" fill="#9b590c" stroke="#9b590c"/>
   <path d="m3449.8 1870.4c4 6.17 6.24-0.06 8.92 0.39-3.46 0.04 5.65 10.41-2.25 9.57 4.97 1.59 15.56 0.92 22.92 0.01 3.87-1.84 3.05 2.72-0.43 1.57-55.91 2.35-112.2 9.1-168.17 5.21 35.93 1.44 71.72-1.9 107.62-2.17 11.95 0.6 23.57-3.18 35.49-3.74-1.14-2.06-2.26-4.1-2.98-6.31-0.41-1.53-0.76-3.05-1.12-4.53z" fill="#a0580b" stroke="#a0580b"/>
   <path d="m2967.9 1878.7c6.39-1.97 12-5.75 18.27-7.91 4.86 1.87-4.86 5.85 0.01 9.93-2.42-0.64-19.61 4.19-18.28-2.02z" fill="#e99f45" stroke="#e99f45"/>
   <path d="m3456.5 1880.4c7.9 0.84-1.21-9.53 2.25-9.57 7.15 2.48 14.1 5.76 20.67 9.58-7.36 0.91-17.95 1.58-22.92-0.01z" fill="#e6a048" stroke="#e6a048"/>
   <path d="m3266.2 1886c-0.02-1.77-2.28-5.77-0.37-6.08 10.05 10.13 31.13 2.85 44.92 7.33 55.97 3.89 112.26-2.86 168.17-5.21-0.02 0.49-0.08 1.47-0.11 1.96-17.05-0.26-34.2 1.12-50.58 5.88-54.13-0.27-108.26 4.67-162.03-3.88z" fill="#4d1200" stroke="#4d1200"/>
   <path d="m2987.9 1881.7c6 0.95 12.03 1.72 18.15 2.17 20.92 5.21 42.9 0.11 64.15 3.97-3.95 0.06-28.74-0.76-14.03 2.06-26.17 2.16-51.76-2.46-77.52-5.58 1.9-2.2 12.79 2.91 9.25-2.62z" fill="#4f1500" stroke="#4f1500"/>
   <path d="m3126.9 1887.8c17.3-2.14 34.71-3.49 52.12-4.79l-0.04 2.8c-13.06 1.3-26.04 3.51-39.16 4.15 9.9-3.42-10.51-1.96-12.92-2.16z" fill="#520e00" stroke="#520e00"/>
   <path d="m2960.2 1894.1c-6.11-12.43 9.91-11.57 18.4-9.82 25.76 3.12 51.35 7.74 77.52 5.58 4.78 0.04 9.79 0.07 14.69 0.29 19.43 1.79 39.04 2.75 58.46 0.15 3.31-0.27 7.04-0.14 10.48-0.35 13.12-0.64 26.1-2.85 39.16-4.15 2.03-0.18 1.79 7.88-0.18 8.07-3.78-0.12-7.14-0.02-10.78-0.08-69.25 0.5-138.5-0.08-207.75 0.31m1.02-8.94c-4.46 10.52 10.44 9.38 14.63 3.81-2-5.55-10.02-4.33-14.63-3.81m212.37 2.37c-2.8 0.47-11.12 1.41-5.84 4.91 7.16 6.7 18.51-7.37 5.84-4.91z" fill="#b37016" stroke="#b37016"/>
   <path d="m3428.3 1889.8c16.38-4.76 33.53-6.14 50.58-5.88 8.07-4.45 9.17 7.48 5.89 10-3.51-0.21-6.44-0.12-9.75-0.16-68.66 0.32-137.33 0.38-205.97-0.01-0.68-0.11-2.03-0.34-2.7-0.45-0.45-2.52-0.48-4.98-0.08-7.38 53.77 8.55 107.9 3.61 162.03 3.88m44.47-4.7c-11.41 5.27 11.36 12.05 12.27 5.95 3.13-8.96-7.96-5.85-12.27-5.95m-205.7 2.02c-5.14 8.37 14.81 9.22 12.79 2.13-4.25-0.83-8.38-2.85-12.79-2.13z" fill="#b36f16" stroke="#b36f16"/>
   <path d="m2961.3 1885.2c4.61-0.52 12.63-1.74 14.63 3.81-4.19 5.57-19.09 6.71-14.63-3.81z" fill="#e28c17" stroke="#e28c17"/>
   <path d="m3472.7 1885.1c4.31 0.1 15.4-3.01 12.27 5.95-0.91 6.1-23.68-0.68-12.27-5.95z" fill="#db911a" stroke="#db911a"/>
   <path d="m3173.6 1887.6c12.67-2.46 1.32 11.61-5.84 4.91-5.28-3.5 3.04-4.44 5.84-4.91z" fill="#e08b23" stroke="#e08b23"/>
   <path d="m3267 1887.2c4.41-0.72 8.54 1.3 12.79 2.13 2.02 7.09-17.93 6.24-12.79-2.13z" fill="#e0891d" stroke="#e0891d"/>
   <path d="m3056.2 1889.9c-14.71-2.82 10.08-2 14.03-2.06 4.45 0.14 8.82 0.09 13.41 0.29 12.21 2.71-9.09 2.16-12.75 2.06-4.9-0.22-9.91-0.25-14.69-0.29z" fill="#2d0300" stroke="#2d0300"/>
   <path d="m3083.6 1888.1c12.52-0.23 25.06-0.12 37.63 0.04-17.49 1.04 1.15 2.87 8.08 2.17-19.42 2.6-39.03 1.64-58.46-0.15 3.66 0.1 24.96 0.65 12.75-2.06z" fill="#521700" stroke="#521700"/>
   <path d="m3121.2 1888.2c1.85-0.11 3.73-0.24 5.64-0.34 2.41 0.2 22.82-1.26 12.92 2.16-3.44 0.21-7.17 0.08-10.48 0.35-6.93 0.7-25.57-1.13-8.08-2.17z" fill="#2f0400" stroke="#2f0400"/>
   <path d="m2960.2 1894.1c69.25-0.39 138.5 0.19 207.75-0.31 2.06 2.95 0.87 3.87-3.58 2.77-68.09 0.43-136.24 1.3-204.29-0.56 0.03-0.48 0.09-1.43 0.12-1.9z" fill="#2d0800" stroke="#2d0800"/>
   <path d="m3168 1893.8c3.64 0.06 7-0.04 10.78 0.08 1.58 2.49 0.85 5.33 1.14 8.28-68.31-0.17-136.63-0.5-204.92 0.14 4.71-8.81-10.2-5.59-15.41-4.45 0.13-0.46 0.41-1.38 0.54-1.84 68.05 1.86 136.2 0.99 204.29 0.56 4.45 1.1 5.64 0.18 3.58-2.77m-2.54 3.22c-6.56 6.69 10.01 3.42 13.47 3.95 1.95-7.62-9.63-2.64-13.47-3.95z" fill="#6e4d1d" stroke="#6e4d1d"/>
   <path d="m3266.3 1893.3c0.67 0.11 2.02 0.34 2.7 0.45-0.24 0.67-0.71 2.01-0.94 2.68 66.55 1.34 133.15-0.1 199.7 0.44 3-0.58 10.89 1.46 7.21-3.11 3.31 0.04 6.24-0.05 9.75 0.16 0.48 2.42 3.29 8.63-0.81 8.45 4.65-8.7-9.09-5.19-14.27-4.89-63.36 0.52-126.9 1.39-190.2-0.41-4.65-0.4-9.41-0.92-13.65 1.08 0.46-1.61 1.15-3.23 0.51-4.85z" fill="#631700" stroke="#631700"/>
   <path d="m3269 1893.8c68.64 0.39 137.31 0.33 205.97 0.01 3.68 4.57-4.21 2.53-7.21 3.11-66.55-0.54-133.15 0.9-199.7-0.44 0.23-0.67 0.7-2.01 0.94-2.68z" fill="#310900" stroke="#310900"/>
   <path d="m2959.6 1897.9c5.21-1.14 20.12-4.36 15.41 4.45-4.56-1.79-16.15 3.5-15.41-4.45z" fill="#bd791d" stroke="#bd791d"/>
   <path d="m3165.4 1897c3.84 1.31 15.42-3.67 13.47 3.95-3.46-0.53-20.03 2.74-13.47-3.95z" fill="#b97720" stroke="#b97720"/>
   <path d="m3265.8 1898.2c4.24-2 9-1.48 13.65-1.08 4.48 0.88 2.46 4.14-0.86 5.07-3.89-0.96-13.43 2.81-12.79-3.99z" fill="#b9731a" stroke="#b9731a"/>
   <path d="m3279.5 1897.1c63.3 1.8 126.84 0.93 190.2 0.41-2.88 2.99 1.42 3.73 3.81 4.39-64.96 0.35-129.93-0.2-194.87 0.27 3.32-0.93 5.34-4.19 0.86-5.07z" fill="#714e1e" stroke="#714e1e"/>
   <path d="m3469.7 1897.5c5.18-0.3 18.92-3.81 14.27 4.89-3.71-0.21-6.93-0.16-10.46-0.5-2.39-0.66-6.69-1.4-3.81-4.39z" fill="#be7c16" stroke="#be7c16"/>
  </g>
 </g>
</svg>
