<?xml version="1.0" standalone="no"?>
<!DOCTYPE svg PUBLIC "-//W3C//DTD SVG 20010904//EN"
 "http://www.w3.org/TR/2001/REC-SVG-20010904/DTD/svg10.dtd">
<svg version="1.0" xmlns="http://www.w3.org/2000/svg"
 width="1200.000000pt" height="1200.000000pt" viewBox="0 0 1200.000000 1200.000000"
 preserveAspectRatio="xMidYMid meet">
<metadata>
Created by potrace 1.14, written by Peter Selinger 2001-2017
</metadata>
<g transform="translate(0.000000,1200.000000) scale(0.100000,-0.100000)"
fill="#000000" stroke="none">
<path d="M5585 11162 c-220 -179 -992 -807 -1715 -1395 -723 -587 -1631 -1325
-2017 -1639 l-702 -571 47 -57 c26 -32 52 -54 57 -50 17 12 1157 936 2485
2016 690 561 1481 1203 1758 1427 l502 408 823 -668 c452 -367 1387 -1127
2077 -1687 690 -561 1389 -1129 1554 -1262 l299 -243 48 57 48 57 -41 35 c-23
19 -751 611 -1617 1315 -867 705 -1937 1574 -2378 1933 -441 359 -808 652
-815 651 -7 0 -193 -147 -413 -327z"/>
<path d="M4617 8735 c-22 -7 -50 -24 -64 -37 -45 -41 -53 -76 -53 -233 l0
-145 1500 0 1500 0 0 145 c0 155 -10 194 -58 238 -52 47 -14 46 -1442 46
-1114 0 -1352 -2 -1383 -14z"/>
<path d="M4500 7175 c0 -1022 0 -1035 20 -1055 20 -20 33 -20 1471 -20 1464 0
1479 0 1501 34 4 6 8 476 8 1044 l0 1032 -1500 0 -1500 0 0 -1035z m1024 452
c56 -56 150 -153 211 -215 l110 -112 -210 -204 c-218 -213 -237 -226 -277
-189 -10 9 -18 28 -18 44 0 22 30 56 165 185 91 86 165 162 165 167 0 5 -72
82 -160 172 -137 139 -160 167 -160 193 0 32 29 62 59 62 8 0 60 -46 115 -103z
m1183 -653 c15 -24 15 -29 2 -53 l-15 -26 -418 -3 c-379 -2 -421 -1 -438 14
-22 21 -23 52 -1 76 15 17 42 18 434 18 l419 0 17 -26z"/>
<path d="M3437 5353 c-2 -5 -62 -192 -132 -418 -70 -225 -130 -416 -132 -422
-4 -10 14 -13 69 -13 l75 0 29 105 28 105 143 0 c126 0 142 -2 147 -17 3 -10
17 -57 31 -105 l26 -88 70 0 c42 0 69 4 69 11 0 5 -56 191 -126 412 -69 221
-127 410 -130 420 -5 14 -18 17 -84 17 -43 0 -81 -3 -83 -7z m136 -357 c26
-88 45 -161 43 -163 -2 -2 -48 -2 -103 -1 l-99 3 50 167 c28 92 53 164 57 160
3 -4 27 -79 52 -166z"/>
<path d="M4040 4930 l0 -430 70 0 c63 0 70 2 70 20 0 22 15 27 26 9 14 -23 90
-49 144 -49 157 0 272 136 272 325 1 243 -198 394 -386 296 l-56 -30 0 145 0
144 -70 0 -70 0 0 -430z m347 59 c66 -32 98 -93 97 -185 -1 -55 -6 -80 -25
-115 -46 -84 -156 -112 -242 -61 l-32 18 -3 156 -2 155 26 18 c60 39 120 44
181 14z"/>
<path d="M7240 4930 l0 -430 70 0 70 0 0 92 c0 86 2 94 27 120 15 15 30 28 33
28 4 0 51 -54 105 -120 l99 -120 90 0 89 0 -20 23 c-11 12 -77 87 -147 166
l-128 144 141 141 142 142 -93 -3 -93 -4 -122 -127 -123 -127 0 253 0 252 -70
0 -70 0 0 -430z"/>
<path d="M5003 5112 c-67 -24 -118 -64 -154 -121 -41 -64 -52 -113 -47 -211 7
-130 59 -215 166 -267 50 -25 68 -28 152 -28 110 0 166 21 233 88 64 64 82
115 82 232 0 86 -4 107 -25 150 -31 63 -90 121 -149 148 -65 29 -189 34 -258
9z m180 -116 c21 -8 48 -22 59 -33 80 -70 76 -256 -7 -321 -68 -53 -170 -53
-231 0 -43 38 -52 54 -64 118 -19 101 23 194 104 231 48 22 87 23 139 5z"/>
<path d="M6607 5120 c-117 -30 -179 -97 -179 -192 1 -104 69 -153 262 -188
139 -26 180 -42 180 -69 0 -83 -198 -95 -353 -21 l-58 27 -25 -48 c-13 -27
-24 -53 -24 -58 0 -33 194 -91 301 -91 186 0 298 77 299 205 0 95 -69 153
-215 181 -211 40 -246 54 -224 95 18 34 51 44 149 43 76 0 105 -5 144 -22 27
-12 52 -22 56 -22 3 0 17 23 30 51 28 58 29 56 -60 90 -62 24 -220 35 -283 19z"/>
<path d="M5610 5104 c0 -4 52 -145 115 -315 l115 -309 -21 -44 c-25 -54 -60
-71 -121 -60 -24 5 -47 8 -52 9 -10 0 -18 -24 -30 -87 -7 -36 -6 -37 31 -47
95 -27 196 -8 254 47 40 38 65 101 275 690 l44 122 -74 0 -74 0 -77 -231 -78
-232 -68 189 c-38 104 -76 208 -85 232 l-16 42 -69 0 c-38 0 -69 -3 -69 -6z"/>
<path d="M8010 5104 c0 -4 52 -145 115 -315 l115 -309 -21 -44 c-25 -54 -60
-71 -121 -60 -24 5 -47 8 -52 9 -10 0 -18 -24 -30 -87 -7 -36 -6 -37 31 -47
95 -27 196 -8 254 47 40 38 65 101 275 690 l44 122 -74 0 -74 0 -77 -231 -78
-232 -68 189 c-38 104 -76 208 -85 232 l-16 42 -69 0 c-38 0 -69 -3 -69 -6z"/>
<path d="M1203 4544 c-24 -29 -43 -57 -43 -62 0 -5 307 -259 683 -563 851
-692 3100 -2519 3704 -3010 l453 -368 452 368 c249 202 1211 983 2138 1736
927 753 1812 1472 1968 1598 155 127 282 234 282 239 0 5 -20 33 -44 63 l-43
53 -285 -231 c-157 -128 -843 -685 -1524 -1238 -682 -554 -1621 -1318 -2089
-1698 -467 -380 -852 -691 -855 -691 -3 0 -207 165 -455 366 -247 201 -531
432 -630 512 -99 81 -670 545 -1270 1032 -1286 1045 -2376 1930 -2390 1940 -6
4 -29 -16 -52 -46z"/>
</g>
</svg>
